<?xml version="1.0" encoding="UTF-8"?>
<svg width="114px" height="40px" viewBox="0 0 114 40" version="1.1" xmlns="http://www.w3.org/2000/svg" xmlns:xlink="http://www.w3.org/1999/xlink">
    <title>484BB1A8-B6F7-43C0-A31A-8A38FAF1F981</title>
    <defs>
        <radialGradient cx="0%" cy="100%" fx="0%" fy="100%" r="150.543628%" gradientTransform="translate(0.000000,1.000000),scale(1.000000,0.888638),rotate(-48.374477),translate(-0.000000,-1.000000)" id="radialGradient-1">
            <stop stop-color="#0958BD" offset="0%"></stop>
            <stop stop-color="#00ACB1" offset="100%"></stop>
        </radialGradient>
    </defs>
    <g id="ONT-(Desktop)---App-(Flow)" stroke="none" stroke-width="1" fill="none" fill-rule="evenodd">
        <g id="ONT---Desktop-(Run-Test)---01" transform="translate(-120.000000, -212.000000)">
            <g id="Group" transform="translate(80.000000, 152.000000)">
                <g id="logo_ONT" transform="translate(40.000000, 60.000000)">
                    <path d="M52.3902409,16.372364 C56.2310615,16.372364 59.5407048,13.2450585 59.5407048,8.18618199 C59.5407048,3.12730548 56.2310615,4.26325641e-14 52.3902409,4.26325641e-14 C48.5698501,4.26325641e-14 45.239777,3.12730548 45.239777,8.18618199 C45.239777,13.2450585 48.5698501,16.372364 52.3902409,16.372364 Z M52.3902409,15.1996244 C49.203177,15.1996244 46.4042811,12.5782066 46.4042811,8.16318709 C46.4042811,3.70217781 49.1827471,1.10375487 52.3902409,1.10375487 C55.6181646,1.10375487 58.3966306,3.7251727 58.3966306,8.16318709 C58.3966306,12.5782066 55.6181646,15.1996244 52.3902409,15.1996244 Z M63.7855834,20.465455 L63.7855834,14.0958695 C64.7049287,15.7055121 65.9920122,16.3263742 67.3608153,16.3263742 C70.1801411,16.3263742 72.0188318,13.9808951 72.0188318,10.8075998 C72.0188318,7.65729944 70.2414308,5.24283565 67.3199555,5.24283565 C65.8898628,5.24283565 64.5823494,5.97867224 63.7855834,7.49633519 L63.7855834,5.4267948 L62.7232287,5.4267948 L62.7232287,20.465455 L63.7855834,20.465455 Z M67.3199555,15.2456142 C65.0113772,15.2456142 63.7447236,13.2450585 63.7447236,10.8075998 C63.7447236,8.30115645 65.0113772,6.27760585 67.3199555,6.27760585 C69.608104,6.27760585 70.8951875,8.34714624 70.8951875,10.8075998 C70.8951875,13.2910483 69.608104,15.2456142 67.3199555,15.2456142 Z M78.7561578,16.3263742 C81.5141939,16.3263742 82.6991279,14.7167317 82.6991279,14.7167317 L82.1883805,13.8659206 L82.1761259,13.879681 C82.045654,14.0234635 80.8772618,15.2456142 78.8583073,15.2456142 C76.7131681,15.2456142 75.4465145,13.566987 75.344365,11.0375487 L83.0464362,11.0375487 C83.0464362,11.0375487 83.1077259,10.5776509 83.1077259,10.2327275 C83.1077259,7.35836583 81.3098949,5.24283565 78.8174475,5.24283565 C76.3045702,5.24283565 74.2207207,7.4733403 74.2207207,10.76161 C74.2207207,14.0268849 75.9981218,16.3263742 78.7561578,16.3263742 Z M82.0249413,10.0027785 L75.3852248,10.0027785 C75.4465145,8.50811049 76.4067197,6.27760585 78.7561578,6.27760585 C81.105596,6.27760585 82.0249413,8.62308496 82.0249413,10.0027785 Z M86.9848663,16.0964253 L86.9848663,10.8075998 C86.9848663,8.27816156 87.9655014,6.27760585 90.0084911,6.27760585 C92.0514807,6.27760585 92.3170694,8.04821263 92.3170694,9.77282962 L92.3170694,16.0964253 L93.3998539,16.0964253 L93.3998539,9.72683983 C93.3998539,7.19740158 92.7665271,5.24283565 90.0493509,5.24283565 C88.6805478,5.24283565 87.4547539,6.13963649 86.9848663,7.40435562 L86.9848663,5.4267948 L85.9225117,5.4267948 L85.9225117,16.0964253 L86.9848663,16.0964253 Z M48.3859811,39.0913185 L48.3855736,30.9623078 C48.3813154,29.1794056 48.3451213,27.3869178 48.3451213,27.3869178 L55.4955852,39.0913185 L58.1719017,39.0913185 L58.1719017,23.2248421 L55.5773048,23.2248421 L55.5773048,31.0431058 C55.5773048,32.9286871 55.6181646,34.7912734 55.6181646,34.7912734 L48.6107099,23.2248421 L45.7913842,23.2248421 L45.7913842,39.0913185 L48.3859811,39.0913185 Z M65.9102927,39.3442623 C68.3210205,39.3442623 69.812403,38.1945176 70.3640102,37.5506606 L69.3425153,35.964013 C68.8726277,36.4239109 67.6876937,37.0907628 66.3597504,37.0907628 C64.8683679,37.0907628 63.663004,36.2399517 63.4178452,34.4693449 L70.6908885,34.4693449 C70.6908885,34.4693449 70.7317483,33.5495492 70.7317483,32.9746769 C70.7317483,30.0083356 68.8930576,27.7548361 65.849003,27.7548361 C63.0296772,27.7548361 60.7210988,30.146305 60.7210988,33.7105135 C60.7210988,37.2977168 62.9275277,39.3442623 65.9102927,39.3442623 Z M68.1167215,32.5607688 L63.3769854,32.5607688 C63.458705,31.1580803 64.2759009,29.939351 65.8285731,29.939351 C67.6672638,29.939351 68.0758617,31.3420395 68.1167215,32.5607688 Z M76.34543,39.3442623 C77.4486444,39.3442623 78.2249805,39.0223338 78.3475599,38.976344 L78.2045506,36.6998496 C78.2045506,36.6998496 77.7959527,36.8838087 77.2647754,36.8838087 C76.34543,36.8838087 76.0798413,36.4699006 76.0798413,34.7682785 L76.0798413,30.2612795 L78.3679898,30.2612795 L78.3679898,27.984785 L76.0798413,27.984785 L76.0798413,24.8114898 L73.4852444,24.8114898 L73.4852444,27.984785 L72.0142919,27.984785 L72.0142919,30.2612795 L73.4852444,30.2612795 L73.4852444,35.4121356 C73.4852444,38.3094921 74.3228702,39.3442623 76.34543,39.3442623 Z M83.5322137,39.3442623 C84.6354282,39.3442623 85.4117643,39.0223338 85.5343436,38.976344 L85.3913344,36.6998496 C85.3913344,36.6998496 84.9827364,36.8838087 84.4515591,36.8838087 C83.5322137,36.8838087 83.2666251,36.4699006 83.2666251,34.7682785 L83.2666251,30.2612795 L85.5547735,30.2612795 L85.5547735,27.984785 L83.2666251,27.984785 L83.2666251,24.8114898 L80.6720282,24.8114898 L80.6720282,27.984785 L79.2010756,27.984785 L79.2010756,30.2612795 L80.6720282,30.2612795 L80.6720282,35.4121356 C80.6720282,38.3094921 81.5096539,39.3442623 83.5322137,39.3442623 Z M92.1490903,39.3442623 C94.5598181,39.3442623 96.0512006,38.1945176 96.6028078,37.5506606 L95.5813129,35.964013 C95.1114253,36.4239109 93.9264913,37.0907628 92.598548,37.0907628 C91.1071655,37.0907628 89.9018016,36.2399517 89.6566428,34.4693449 L96.9296861,34.4693449 C96.9296861,34.4693449 96.9705459,33.5495492 96.9705459,32.9746769 C96.9705459,30.0083356 95.1318552,27.7548361 92.0878006,27.7548361 C89.2684748,27.7548361 86.9598964,30.146305 86.9598964,33.7105135 C86.9598964,37.2977168 89.1663253,39.3442623 92.1490903,39.3442623 Z M94.3555191,32.5607688 L89.615783,32.5607688 C89.6975026,31.1580803 90.5146985,29.939351 92.0673707,29.939351 C93.9060614,29.939351 94.3146593,31.3420395 94.3555191,32.5607688 Z M102.543368,39.3442623 C104.974526,39.3442623 106.465908,37.7806096 106.465908,35.6650794 C106.465908,34.0554369 105.689572,33.1816309 103.503573,32.3768097 L102.808956,32.1238658 C101.705742,31.7329526 101.378864,31.3420395 101.378864,30.8591467 C101.378864,30.3302642 101.807892,29.9623459 102.665947,29.9623459 C103.564863,29.9623459 104.402488,30.4222437 104.974526,30.9051365 L106.09817,28.9505706 C105.280974,28.2837187 104.300339,27.7548361 102.543368,27.7548361 C100.643387,27.7548361 99.0089956,29.065545 99.0089956,31.0890956 C99.0089956,32.721733 99.7649018,33.7105135 101.235854,34.2623909 L102.379929,34.6992939 C103.646582,35.1821866 104.03475,35.5041151 104.03475,36.0789875 C104.03475,36.7228445 103.585293,37.1367525 102.604657,37.1367525 C101.767032,37.1367525 100.765967,36.6308649 99.6014627,35.6190896 L98.539108,37.6196453 C99.335874,38.6544155 101.031555,39.3442623 102.543368,39.3442623 Z M111.97744,39.3442623 C113.080655,39.3442623 113.856991,39.0223338 113.97957,38.976344 L113.836561,36.6998496 C113.836561,36.6998496 113.427963,36.8838087 112.896786,36.8838087 C111.97744,36.8838087 111.711852,36.4699006 111.711852,34.7682785 L111.711852,30.2612795 L114,30.2612795 L114,27.984785 L111.711852,27.984785 L111.711852,24.8114898 L109.117255,24.8114898 L109.117255,27.984785 L107.646302,27.984785 L107.646302,30.2612795 L109.117255,30.2612795 L109.117255,35.4121356 C109.117255,38.3094921 109.95488,39.3442623 111.97744,39.3442623 Z" id="OpenNettest" fill="#000000" fill-rule="nonzero"></path>
                    <polygon id="Path-2" fill="url(#radialGradient-1)" points="35.545539 12.8541453 30.8061338 20.465455 30.8061338 5.33333333 4.7394052 5.33333333 4.7394052 34.6666667 30.8061338 34.6666667 30.8061338 22 35.545539 22 35.545539 40 0 40 0 -1.42108547e-14 35.545539 -1.42108547e-14"></polygon>
                </g>
            </g>
        </g>
    </g>
</svg>