<?xml version="1.0" encoding="UTF-8"?>
<svg width="109px" height="28px" viewBox="0 0 109 28" version="1.1" xmlns="http://www.w3.org/2000/svg" xmlns:xlink="http://www.w3.org/1999/xlink">
    <title>22055FD5-8575-44A5-A2E4-7EA76512BECE</title>
    <defs>
        <polygon id="path-1" points="0 0 9.73252195 0 9.73252195 14.3428524 0 14.3428524"></polygon>
        <polygon id="path-3" points="0 0 9.85306775 0 9.85306775 10.1800481 0 10.1800481"></polygon>
    </defs>
    <g id="ONT-(Desktop)---App-(Flow)" stroke="none" stroke-width="1" fill="none" fill-rule="evenodd">
        <g id="ONT---Desktop-(Run-Test)---01" transform="translate(-120.000000, -784.000000)">
            <g id="Group" transform="translate(80.000000, 152.000000)">
                <g transform="translate(40.000000, 632.000000)" id="logo_Specure">
                    <g id="Group">
                        <polygon id="Fill-1" fill="#FECC05" points="0 13.9990122 7.36064636 26.830514 14.7203095 13.9990122 7.36064636 1.16849821"></polygon>
                        <polygon id="Fill-2" fill="#00ACB0" points="16.7340155 15.1665226 9.37336918 28 24.0926954 28 31.454325 15.1665226"></polygon>
                        <polygon id="Fill-3" fill="#2C347F" points="9.3722876 0 16.7339172 12.8324896 31.4542267 12.8324896 24.0925971 0"></polygon>
                    </g>
                    <g id="Group-17" transform="translate(36.939435, 5.195826)">
                        <g id="Group-3">
                            <mask id="mask-2" fill="white">
                                <use xlink:href="#path-1"></use>
                            </mask>
                            <g id="Clip-2"></g>
                            <path d="M9.73252195,10.0394072 C9.73252195,12.624843 7.84302114,14.3428524 4.90733708,14.3428524 C2.53330589,14.3428524 0.905350879,13.2311992 0,12.1801817 L1.24569575,10.2819497 C2.3321168,11.4744504 3.63984585,12.1195461 4.9475749,12.1195461 C6.23350846,12.1195461 7.11706386,11.4929779 7.11706386,10.2819497 C7.11706386,9.19050839 6.39445973,8.82669462 5.20744413,8.34329392 L3.0362786,7.47418326 C1.52736046,6.86782698 0.523091619,5.79659756 0.523091619,4.10048431 C0.523091619,1.67674353 2.41259244,-0.000842161494 5.32815758,-0.000842161494 C7.29813403,-0.000842161494 8.72657653,0.827844749 9.55145178,1.67674353 L8.30407945,3.55476367 C7.42052406,2.74628863 6.35422191,2.16182856 5.16720632,2.16182856 C4.02210511,2.16182856 3.11675423,2.72607676 3.11675423,3.75688243 C3.11675423,4.76747622 3.98186729,5.15150186 4.70447142,5.45299567 L7.01814589,6.40295384 C8.96800343,7.21142887 9.73252195,8.30287017 9.73252195,10.0394072" id="Fill-1" fill="#000000" mask="url(#mask-2)"></path>
                        </g>
                        <path d="M14.0818946,9.23110057 C14.0818946,10.8682625 15.1465202,12.3016214 16.7962707,12.3016214 C18.4644635,12.3016214 19.4301711,10.8682625 19.4301711,9.23110057 C19.4301711,7.53498732 18.3839879,6.20100351 16.7157951,6.20100351 C15.1666391,6.20100351 14.0818946,7.39350419 14.0818946,9.23110057 L14.0818946,9.23110057 Z M14.2026081,5.71760282 C14.9872455,4.54531402 16.1524656,4.10065275 17.4400758,4.10065275 C20.2952842,4.10065275 22.0439527,6.32227477 22.0439527,9.23110057 C22.0439527,12.0001276 20.2148086,14.2823852 17.2590056,14.2823852 C15.7702064,14.2823852 14.9470077,13.7568764 14.1422514,12.7867064 L14.1020135,12.8069183 C14.1221325,13.2717914 14.1422514,13.7164527 14.1422514,14.4019721 L14.1422514,17.795883 L11.5888266,17.795883 L11.5888266,4.32298338 L14.2026081,4.32298338 L14.1623703,5.69570662 L14.2026081,5.71760282 Z" id="Fill-4" fill="#000000"></path>
                        <path d="M25.8105476,8.3624952 L30.4764578,8.3624952 C30.43622,7.29126578 30.0338418,6.06002568 28.2231401,6.06002568 C26.6957796,6.06002568 25.8910233,7.1312551 25.8105476,8.3624952 M28.7462317,12.3425504 C30.0539607,12.3425504 31.2208574,11.756406 31.6819157,11.3521685 L32.6878612,12.7467879 C32.1446506,13.3110361 30.6759703,14.3216299 28.3036157,14.3216299 C25.3679316,14.3216299 23.1967661,12.5244573 23.1967661,9.373089 C23.1967661,6.24193256 25.4685262,4.1415818 28.243259,4.1415818 C31.2392997,4.1415818 33.0500015,6.12066131 33.0500015,8.72630897 C33.0500015,9.23160587 33.0097637,10.0400809 33.0097637,10.0400809 L25.8507854,10.0400809 C26.0922123,11.594711 27.2775514,12.3425504 28.7462317,12.3425504" id="Fill-6" fill="#000000"></path>
                        <path d="M42.3658944,11.1102997 L43.0901751,13.0085317 C42.888986,13.1904386 41.8830406,14.3223037 39.289378,14.3223037 C36.6353586,14.3223037 34.1825284,12.483023 34.1825284,9.2912309 C34.1825284,6.08091128 36.7158343,4.1405712 39.3296158,4.1405712 C41.7824461,4.1405712 42.7481537,5.13095312 43.0096995,5.39370751 L42.3055377,7.33236326 C42.003754,7.049397 41.1403176,6.30324192 39.6313994,6.30324192 C38.104039,6.30324192 36.8767855,7.37278702 36.8767855,9.17164397 C36.8767855,10.9688166 38.104039,12.1394211 39.7722318,12.1394211 C41.4404246,12.1394211 42.3658944,11.1102997 42.3658944,11.1102997" id="Fill-8" fill="#000000"></path>
                        <path d="M48.6039296,12.1604751 C50.1530856,12.1604751 50.7348573,10.929235 50.7348573,9.29207306 L50.7348573,4.32332025 L53.3100776,4.32332025 L53.3100776,14.0991309 L50.815333,14.0991309 L50.7968906,12.7264076 C50.2335612,13.6965777 49.187378,14.2810378 47.7790544,14.2810378 C44.9842027,14.2810378 44.3018364,12.4636532 44.3018364,10.12076 L44.3018364,4.32332025 L46.8753801,4.32332025 L46.8753801,9.55482745 C46.8753801,11.0083982 47.116807,12.1604751 48.6039296,12.1604751" id="Fill-10" fill="#000000"></path>
                        <path d="M58.2418927,4.32281495 L58.2016549,5.89934127 L58.2620116,5.89934127 C58.6442709,4.84832372 59.6083019,4.14090807 60.6544851,4.14090807 C61.3184091,4.14090807 61.6805495,4.32281495 61.6805495,4.32281495 L61.4994793,6.56464885 L61.3787658,6.56464885 C61.0971011,6.48380134 60.6544851,6.44337759 60.3124637,6.44337759 C59.5479452,6.44337759 58.9661734,6.76676761 58.6040331,7.39333576 C58.3626061,7.87842078 58.2418927,8.54372836 58.2418927,9.29156776 L58.2418927,14.1003099 L55.6884679,14.1003099 L55.6884679,4.32281495 L58.2418927,4.32281495 Z" id="Fill-12" fill="#000000"></path>
                        <g id="Group-16" transform="translate(62.207497, 4.141582)">
                            <mask id="mask-4" fill="white">
                                <use xlink:href="#path-3"></use>
                            </mask>
                            <g id="Clip-15"></g>
                            <path d="M2.61378152,4.22091341 L7.2796917,4.22091341 C7.23945388,3.14968399 6.83707571,1.91844388 5.02637396,1.91844388 C3.49901349,1.91844388 2.69425715,2.9896733 2.61378152,4.22091341 M5.54946558,8.20096863 C6.85719462,8.20096863 8.02409131,7.61482423 8.48514963,7.21058671 L9.49109505,8.60520615 C8.94788452,9.16945435 7.47920421,10.1800481 5.10684959,10.1800481 C2.17116553,10.1800481 0,8.38287551 0,5.2315072 C0,2.10035077 2.27176008,0 5.04649286,0 C8.04253364,0 9.8532354,1.97907951 9.8532354,4.58472717 C9.8532354,5.09002407 9.81299759,5.8984991 9.81299759,5.8984991 L2.65401934,5.8984991 C2.89544624,7.45312922 4.08078526,8.20096863 5.54946558,8.20096863" id="Fill-14" fill="#000000" mask="url(#mask-4)"></path>
                        </g>
                    </g>
                </g>
            </g>
        </g>
    </g>
</svg>