<svg width="30" height="36" viewBox="0 0 30 36" fill="none" xmlns="http://www.w3.org/2000/svg">
<path d="M3.54903 0C2.10214 0 0.937622 1.16456 0.937622 2.61141V28.6989C0.937622 30.1452 2.10218 31.3098 3.54903 31.3098H13.3691C14.8007 34.0947 17.6835 36.0007 21.0048 36.0007C25.7495 36.0007 29.6042 32.1138 29.6042 27.3288C29.6042 23.6905 27.3742 20.5731 24.2198 19.2874V7.87368C24.2198 7.18398 23.9424 6.51224 23.4551 6.0303C23.4545 6.0303 23.454 6.02974 23.4529 6.02974L18.1921 0.767729C17.702 0.277112 17.0373 0.000783891 16.3476 0.000783891L3.54904 0.000252426M3.54904 2.2129H13.5829C13.8032 2.2129 13.9816 2.39132 13.9816 2.6116V9.13328C13.9816 9.7539 14.4668 10.2401 15.0874 10.2401H21.609C21.8288 10.2401 22.0072 10.4186 22.0072 10.6388V18.7178C21.6781 18.6792 21.3441 18.6569 21.0047 18.6569C19.2728 18.6569 17.6612 19.1769 16.3112 20.0667H7.31191C7.115 20.0667 6.95672 20.2245 6.95672 20.4208V22.1772C6.95672 22.3735 7.115 22.5307 7.31191 22.5307H13.8461C12.9377 23.9052 12.4074 25.555 12.4074 27.3287C12.4074 27.9347 12.4694 28.5259 12.5869 29.097H3.54896C3.32867 29.0976 3.15025 28.9192 3.15025 28.6989V2.61142C3.15025 2.39112 3.32868 2.21271 3.54896 2.21327V2.21271M16.6049 2.45746C16.7061 2.46073 16.8024 2.50264 16.8742 2.57443L21.6465 7.34626C21.8984 7.597 21.72 8.02672 21.3648 8.02616H16.5929C16.3726 8.02616 16.1943 7.84777 16.1943 7.62748V2.85565C16.1943 2.64622 16.3563 2.47273 16.5652 2.45855C16.5782 2.45746 16.5918 2.45693 16.6049 2.45746ZM7.31186 14.7987C7.11551 14.7987 6.95667 14.957 6.95667 15.1533V16.9097C6.95667 17.106 7.11496 17.2632 7.31186 17.2632H17.8461C18.043 17.2632 18.2013 17.106 18.2013 16.9097V15.1533C18.2013 14.957 18.0425 14.7987 17.8461 14.7987H7.31186ZM21.0047 20.9724C24.493 20.9724 27.3078 23.8106 27.3078 27.3287C27.3078 30.8463 24.4935 33.6851 21.0047 33.6851C17.5164 33.6851 14.7016 30.8469 14.7016 27.3287C14.7016 23.8111 17.5159 20.9724 21.0047 20.9724ZM24.6382 23.7578C24.4456 23.7568 24.2531 23.8291 24.1079 23.9743L19.6547 28.4296L17.9125 26.6581C17.6243 26.3649 17.1445 26.3628 16.8535 26.6532L16.098 27.4093C15.8075 27.6998 15.8048 28.1833 16.0931 28.4765L19.113 31.5475C19.4012 31.8407 19.881 31.8423 20.1715 31.5524L25.9121 25.8085C26.2025 25.5175 26.2047 25.0339 25.917 24.7407C25.9094 24.7331 25.9018 24.7261 25.8936 24.719C25.8925 24.7179 25.8914 24.7173 25.8909 24.7163L25.1664 23.9787C25.0222 23.8324 24.8297 23.7579 24.6377 23.7573L24.6382 23.7578Z" fill="black"/>
</svg>
