<svg width="30" height="30" viewBox="0 0 30 30" fill="none" xmlns="http://www.w3.org/2000/svg">
<g id="chevron-left 1">
<path id="Vector" fill-rule="evenodd" clip-rule="evenodd" d="M21.2887 3.08625C21.376 3.17333 21.4453 3.27679 21.4926 3.39068C21.5398 3.50458 21.5641 3.62668 21.5641 3.75C21.5641 3.87331 21.5398 3.99541 21.4926 4.10931C21.4453 4.22321 21.376 4.32666 21.2887 4.41375L10.7006 15L21.2887 25.5862C21.4648 25.7623 21.5637 26.001 21.5637 26.25C21.5637 26.499 21.4648 26.7377 21.2887 26.9137C21.1127 27.0898 20.8739 27.1887 20.625 27.1887C20.376 27.1887 20.1373 27.0898 19.9612 26.9137L8.71122 15.6637C8.62391 15.5767 8.55464 15.4732 8.50738 15.3593C8.46012 15.2454 8.43579 15.1233 8.43579 15C8.43579 14.8767 8.46012 14.7546 8.50738 14.6407C8.55464 14.5268 8.62391 14.4233 8.71122 14.3362L19.9612 3.08625C20.0483 2.99894 20.1518 2.92967 20.2657 2.88241C20.3796 2.83515 20.5017 2.81082 20.625 2.81082C20.7483 2.81082 20.8704 2.83515 20.9843 2.88241C21.0982 2.92967 21.2016 2.99894 21.2887 3.08625Z" fill="black"/>
</g>
</svg>
