<?xml version="1.0" encoding="UTF-8" standalone="no"?>
<svg
   width="49"
   height="49"
   viewBox="0 0 49 49"
   fill="none"
   version="1.1"
   id="svg826"
   sodipodi:docname="filetype-pdf 1.svg"
   inkscape:version="1.1.1 (c3084ef, 2021-09-22)"
   xmlns:inkscape="http://www.inkscape.org/namespaces/inkscape"
   xmlns:sodipodi="http://sodipodi.sourceforge.net/DTD/sodipodi-0.dtd"
   xmlns="http://www.w3.org/2000/svg"
   xmlns:svg="http://www.w3.org/2000/svg">
  <defs
     id="defs830" />
  <sodipodi:namedview
     id="namedview828"
     pagecolor="#ffffff"
     bordercolor="#666666"
     borderopacity="1.0"
     inkscape:pageshadow="2"
     inkscape:pageopacity="0.0"
     inkscape:pagecheckerboard="0"
     showgrid="false"
     inkscape:zoom="3.6528636"
     inkscape:cx="-30.113361"
     inkscape:cy="-9.3077662"
     inkscape:window-width="1440"
     inkscape:window-height="900"
     inkscape:window-x="0"
     inkscape:window-y="0"
     inkscape:window-maximized="0"
     inkscape:current-layer="svg826" />
  <path
     id="Vector"
     fill-rule="evenodd"
     clip-rule="evenodd"
     d="M 42.875,13.7812 V 42.875 c 0,1.6245 -0.6453,3.1824 -1.794,4.331 C 39.9324,48.3547 38.3745,49 36.75,49 H 33.6875 V 45.9375 H 36.75 c 0.8122,0 1.5912,-0.3227 2.1655,-0.897 0.5743,-0.5743 0.897,-1.3533 0.897,-2.1655 V 13.7812 h -6.125 c -1.2183,0 -2.3868,-0.4839 -3.2483,-1.3454 -0.8615,-0.8615 -1.3454,-2.03 -1.3454,-3.2483 V 3.0625 H 12.25 c -0.8122,0 -1.5912,0.32266 -2.1655,0.89699 C 9.51016,4.53382 9.1875,5.31277 9.1875,6.125 V 33.6875 H 6.125 V 6.125 C 6.125,4.50055 6.77031,2.94263 7.91897,1.79397 9.06763,0.645311 10.6255,0 12.25,0 h 16.8438 z"
     fill="#000000"
     sodipodi:nodetypes="cscsccssscssscscsccssscc" />
  <text
     xml:space="preserve"
     style="font-style:normal;font-variant:normal;font-weight:bold;font-stretch:normal;font-size:16px;line-height:1.25;font-family:Arial;-inkscape-font-specification:'Arial, Bold';font-variant-ligatures:normal;font-variant-caps:normal;font-variant-numeric:normal;font-variant-east-asian:normal;fill:#000000;fill-opacity:1;stroke:none"
     x="-0.7578125"
     y="48.796875"
     id="text2789"><tspan
       sodipodi:role="line"
       id="tspan2787"
       x="-0.7578125"
       y="48.796875"
       style="font-style:normal;font-variant:normal;font-weight:bold;font-stretch:normal;font-size:16px;font-family:Arial;-inkscape-font-specification:'Arial, Bold';font-variant-ligatures:normal;font-variant-caps:normal;font-variant-numeric:normal;font-variant-east-asian:normal">CSV</tspan></text>
</svg>
