<?xml version="1.0" encoding="UTF-8" standalone="no"?>
<svg
   version="1.1"
   viewBox="0 0 500 500"
   id="svg1030"
   sodipodi:docname="gauge.svg"
   inkscape:version="1.1.1 (c3084ef, 2021-09-22)"
   xmlns:inkscape="http://www.inkscape.org/namespaces/inkscape"
   xmlns:sodipodi="http://sodipodi.sourceforge.net/DTD/sodipodi-0.dtd"
   xmlns:xlink="http://www.w3.org/1999/xlink"
   xmlns="http://www.w3.org/2000/svg"
   xmlns:svg="http://www.w3.org/2000/svg"
   xmlns:rdf="http://www.w3.org/1999/02/22-rdf-syntax-ns#"
   xmlns:cc="http://creativecommons.org/ns#"
   xmlns:dc="http://purl.org/dc/elements/1.1/">
  <sodipodi:namedview
     id="namedview1032"
     pagecolor="#ffffff"
     bordercolor="#666666"
     borderopacity="1.0"
     inkscape:pageshadow="2"
     inkscape:pageopacity="0.0"
     inkscape:pagecheckerboard="0"
     showgrid="false"
     showguides="true"
     inkscape:guide-bbox="true"
     inkscape:zoom="2.9457073"
     inkscape:cx="202.49805"
     inkscape:cy="294.83581"
     inkscape:window-width="1440"
     inkscape:window-height="789"
     inkscape:window-x="-1"
     inkscape:window-y="25"
     inkscape:window-maximized="0"
     inkscape:current-layer="svg1030" />
  <metadata
     id="metadata824">
    <rdf:RDF>
      <cc:Work
         rdf:about="">
        <dc:format>image/svg+xml</dc:format>
        <dc:type
           rdf:resource="http://purl.org/dc/dcmitype/StillImage" />
        <dc:title />
      </cc:Work>
    </rdf:RDF>
  </metadata>
  <defs
     id="defs828">
    <path
       id="a"
       d="m226.62 23.411c-22.945-14.813-50.28-23.411-79.62-23.411-81.19 0-147 65.814-147 147 0 81.19 65.814 147 147 147 81.19 0 147-65.814 147-147 0-.167 0-.333-.001-.5h-25c.001.167.001.333.001.5 0 67.38-54.621 122-122 122-67.38 0-122-54.621-122-122 0-67.38 54.621-122 122-122 24.336 0 47.01 7.126 66.04 19.404z"
       fill="#d6d6d6"
       fill-rule="evenodd" />
    <path
       id="b"
       d="m131.84 0c5.672 0 11.269.321 16.773.947l-2.852 24.839c-4.569-.519-9.214-.785-13.921-.785-16.58 0-32.386 3.307-46.797 9.298l-9.59-23.09c17.364-7.218 36.41-11.203 56.39-11.203m122 147c0-58.977-41.849-108.18-97.47-119.53l5.03-24.495c67.02 13.68 117.45 72.965 117.45 144.03 0 16.59-2.749 32.539-7.815 47.41l-23.671-8.06c4.205-12.346 6.486-25.582 6.486-39.35m-10.267 49.06c-18.885 42.948-61.807 72.938-111.73 72.938-25.738 0-49.614-7.97-69.29-21.576l-14.317 20.498c23.737 16.443 52.55 26.08 83.61 26.08 60.16 0 111.87-36.14 134.63-87.88zm-168.4-157.13l-11.612-22.15c-27.457 14.427-49.792 37.28-63.56 65.13l22.405 11.1c11.429-23.13 29.973-42.11 52.772-54.09"
       fill="#d6d6d6"
       fill-rule="evenodd" />
  </defs>
  <text
     x="102.50781"
     y="268.16464"
     fill="#333333"
     font-family="sans-serif"
     font-size="9.333px"
     letter-spacing="0"
     word-spacing="0"
     style="line-height:125%"
     line-height="125%"
     id="text1483">1000</text>
  <text
     x="58.394978"
     y="353.35443"
     style="font-size:9.333px;line-height:125%;font-family:sans-serif;letter-spacing:0;word-spacing:0;fill:#333333"
     line-height="125%"
     id="text1401">100</text>
  <text
     x="105.17484"
     y="442.47369"
     style="font-size:9.333px;line-height:125%;font-family:sans-serif;letter-spacing:0;word-spacing:0;fill:#333333"
     line-height="125%"
     id="text1317">10</text>
  <use
     transform="translate(18 206)"
     width="500"
     height="500"
     xlink:href="#a"
     id="use830" />
  <use
     transform="translate(205.16)"
     width="500"
     height="500"
     xlink:href="#b"
     id="use832" />
  <g
     fill="#333"
     id="g886">
    <g
       aria-label="INIT"
       id="g842">
      <path
         d="m232.33 95.17l.41-.824 6.093 3.03-.41.824z"
         id="path834" />
      <path
         d="m233.7 92.44l.6-1.084 6.441.118-4.98-2.757.433-.781 5.953 3.296-.6 1.084-6.441-.118 4.98 2.757-.433.781z"
         id="path836" />
      <path
         d="m237.31 86.11l.481-.785 5.8 3.557-.481.785z"
         id="path838" />
      <path
         d="m238.37 84.33l3.196-4.787.644.43-1.341 2.01 5.01 3.348-.514.769-5.01-3.348-1.341 2.01z"
         id="path840" />
    </g>
    <g
       aria-label="PING"
       id="g852">
      <path
         d="m293.82 39.1l.932 2.381 1.078-.422q.598-.234.804-.672.206-.438-.019-1.01-.223-.569-.671-.751-.448-.182-1.046.052zm-1.133-.369l1.935-.757q1.065-.417 1.798-.146.735.265 1.099 1.195.367.938.007 1.632-.356.692-1.421 1.109l-1.078.422.996 2.546-.857.335z"
         id="path844" />
      <path
         d="m298.21 36.644l.87-.302 2.233 6.427-.87.302z"
         id="path846" />
      <path
         d="m301.09 35.641l1.188-.354 4.517 4.593-1.626-5.455.856-.255 1.944 6.52-1.188.354-4.517-4.593 1.626 5.455-.856.255z"
         id="path848" />
      <path
         d="m314.05 38.24l-.407-1.782-1.466.335-.168-.738 2.355-.537.65 2.848q-.436.487-1.019.821-.584.33-1.295.492-1.555.355-2.642-.351-1.083-.711-1.453-2.333-.371-1.626.297-2.732.672-1.112 2.227-1.467.649-.148 1.267-.121.623.026 1.187.225l.218.955q-.594-.309-1.202-.394-.608-.085-1.226.055-1.217.278-1.675 1.098-.454.819-.146 2.165.306 1.342 1.07 1.883.768.54 1.986.262.475-.109.83-.274.354-.17.612-.411"
         id="path850" />
    </g>
    <g
       aria-label="DOWNLOAD"
       id="g870">
      <path
         d="m361.83 33.511l-1.215 5.15 1.082.255q1.371.323 2.151-.148.785-.47 1.101-1.81.314-1.331-.179-2.098-.488-.771-1.858-1.094zm-.722-.948l1.841.434q1.925.454 2.636 1.47.712 1.01.31 2.714-.404 1.712-1.498 2.301-1.094.589-3.01.137l-1.841-.434z"
         id="path854" />
      <path
         d="m370.98 35.798q-.958-.295-1.744.245-.782.541-1.161 1.774-.378 1.228-.036 2.116.346.889 1.305 1.183.958.295 1.736-.248.782-.541 1.16-1.77.379-1.233.037-2.12-.338-.886-1.296-1.181m.22-.714q1.368.421 1.904 1.592.537 1.167.063 2.709-.473 1.538-1.575 2.205-1.1.663-2.468.242-1.372-.422-1.914-1.59-.537-1.167-.063-2.709.474-1.542 1.575-2.205 1.106-.666 2.478-.244"
         id="path856" />
      <path
         d="m375.47 36.532l.865.34-.773 5.876 3.432-4.83.963.379-.773 5.876 3.432-4.83.869.342-4.08 5.707-1.077-.424.825-6.02-3.51 4.966-1.077-.424z"
         id="path858" />
      <path
         d="m385.04 40.43l1.117.538.247 6.437 2.471-5.128.805.388-2.953 6.13-1.117-.538-.247-6.437-2.471 5.128-.805-.388z"
         id="path860" />
      <path
         d="m391.62 43.703l.806.444-2.907 5.282 2.902 1.598-.374.679-3.709-2.042z"
         id="path862" />
      <path
         d="m398.21 48.25q-.85-.531-1.749-.211-.895.323-1.578 1.417-.681 1.09-.578 2.035.107.948.957 1.479.85.531 1.741.206.895-.323 1.575-1.413.683-1.094.58-2.039-.099-.943-.949-1.474m.396-.634q1.214.758 1.431 2.027.22 1.266-.635 2.634-.852 1.365-2.088 1.726-1.234.358-2.447-.4-1.218-.76-1.441-2.028-.22-1.266.635-2.634.854-1.368 2.088-1.726 1.24-.359 2.458.401"
         id="path864" />
      <path
         d="m403.93 52.41l-2.984 2.031 2.036 1.454zm.104-1.04l.849.606-1.842 7.04-.779-.556.51-1.781-2.496-1.782-1.519 1.061-.79-.564z"
         id="path866" />
      <path
         d="m408.34 55.52l-3.333 4.109.864.701q1.094.887 2 .802.912-.082 1.779-1.151.861-1.062.751-1.967-.104-.906-1.198-1.793zm-.238-1.167l1.469 1.191q1.536 1.246 1.735 2.469.202 1.22-.901 2.579-1.108 1.366-2.35 1.421-1.242.055-2.771-1.185l-1.469-1.191z"
         id="path868" />
    </g>
    <g
       aria-label="UPLOAD"
       id="g884">
      <path
         d="m421.17 220.77l.596-.708 3.163 2.661q.837.704 1.462.712.621.005 1.194-.675.569-.676.458-1.288-.114-.614-.951-1.319l-3.163-2.661.596-.708 3.25 2.735q1.018.857 1.112 1.8.097.939-.73 1.923-.83.987-1.775 1.055-.942.065-1.96-.792z"
         id="path872" />
      <path
         d="m426.53 215.42l2.039 1.542.698-.923q.388-.513.334-.993-.054-.481-.544-.852-.487-.368-.964-.289-.477.079-.865.592zm-1.159.278l1.253-1.658q.69-.912 1.456-1.064.765-.158 1.561.444.803.607.86 1.387.059.776-.631 1.688l-.698.923 2.181 1.649-.555.734z"
         id="path874" />
      <path
         d="m428.55 211.42l.522-.758 4.964 3.422 1.88-2.728.638.44-2.403 3.486z"
         id="path876" />
      <path
         d="m433.1 205.66q-.527.853-.202 1.75.327.893 1.425 1.57 1.094.675 2.038.567.947-.112 1.474-.965.527-.853.197-1.742-.327-.893-1.421-1.568-1.097-.677-2.042-.57-.942.104-1.469.957m-.636-.393q.752-1.218 2.02-1.442 1.264-.226 2.637.621 1.369.845 1.737 2.079.364 1.232-.387 2.449-.754 1.222-2.02 1.452-1.264.226-2.637-.621-1.373-.847-1.737-2.079-.366-1.238.388-2.46"
         id="path878" />
      <path
         d="m436.52 200.31l2.384 2.71 1.191-2.2zm-1.045.025l.497-.918 7.218.958-.455.842-1.83-.286-1.46 2.697 1.24 1.376-.462.854z"
         id="path880" />
      <path
         d="m438.54 196.08l4.79 2.248.472-1.01q.598-1.275.298-2.136-.299-.865-1.545-1.45-1.238-.581-2.09-.256-.854.319-1.453 1.594zm-1.076.512l.804-1.712q.84-1.79 1.98-2.277 1.136-.489 2.72.255 1.592.747 1.944 1.94.352 1.192-.485 2.974l-.804 1.712z"
         id="path882" />
    </g>
  </g>
  <text
     x="263.1019"
     y="355.70547"
     style="font-size:9.333px;line-height:125%;font-family:sans-serif;letter-spacing:0;word-spacing:0;fill:#333333"
     line-height="125%"
     id="text888">0</text>
  <g
     stroke="#d6d6d6"
     id="g1010">
    <g
       transform="matrix(.86883 -.57872 .57872 .86883 -184.79 147.66)"
       fill="none"
       id="g920">
      <g
         transform="matrix(-.5412 .0074049 -.0074049 -.5412 433.99 649.43)"
         stroke-width="1.5"
         id="g916">
        <path
           d="m498.83 338.07-1.4384 20.692z"
           id="path898" />
        <path
           d="m488.77 337.49-0.70732 20.73z"
           id="path900" />
        <path
           d="m476.88 337.24 0.41463 20.738z"
           id="path902" />
        <path
           d="m463.16 338.02 1.6095 20.679z"
           id="path904" />
        <path
           d="m447.7 339.8 2.8563 20.544z"
           id="path906" />
        <path
           d="m430.38 343.08 4.4704 20.254z"
           id="path908" />
        <path
           d="m407.88 349.5 6.547 19.682z"
           id="path910" />
        <path
           d="m384.07 359.37 9.0788 18.65z"
           id="path912" />
        <path
           d="m345.54 382.53 12.57 16.499z"
           id="path914" />
      </g>
      <path
         d="m271.36 415.91-9.423-6.1028z"
         stroke-width=".81188"
         id="path918" />
    </g>
    <g
       transform="matrix(.93314 .468 -.468 .93314 169.06 -52.424)"
       id="g942">
      <g
         transform="matrix(-.5412 .0074049 -.0074049 -.5412 433.99 649.43)"
         fill="none"
         stroke="#d6d6d6"
         stroke-width="1.5"
         id="g940">
        <path
           d="m498.83 338.07-1.4384 20.692z"
           id="path922" />
        <path
           d="m488.77 337.49-0.70732 20.73z"
           id="path924" />
        <path
           d="m476.88 337.24 0.41463 20.738z"
           id="path926" />
        <path
           d="m463.16 338.02 1.6095 20.679z"
           id="path928" />
        <path
           d="m447.7 339.8 2.8563 20.544z"
           id="path930" />
        <path
           d="m430.38 343.08 4.4704 20.254z"
           id="path932" />
        <path
           d="m407.88 349.5 6.547 19.682z"
           id="path934" />
        <path
           d="m384.07 359.37 9.0788 18.65z"
           id="path936" />
        <path
           d="m345.54 382.53 12.57 16.499z"
           id="path938" />
      </g>
    </g>
    <g
       transform="matrix(.049887 1.0427 -1.0427 .049887 520.41 158.8)"
       id="g964">
      <g
         transform="matrix(-.5412 .0074049 -.0074049 -.5412 433.99 649.43)"
         fill="none"
         stroke="#d6d6d6"
         stroke-width="1.5"
         id="g962">
        <path
           d="m498.83 338.07-1.4384 20.692z"
           id="path944" />
        <path
           d="m488.77 337.49-0.70732 20.73z"
           id="path946" />
        <path
           d="m476.88 337.24 0.41463 20.738z"
           id="path948" />
        <path
           d="m463.16 338.02 1.6095 20.679z"
           id="path950" />
        <path
           d="m447.7 339.8 2.8563 20.544z"
           id="path952" />
        <path
           d="m430.38 343.08 4.4704 20.254z"
           id="path954" />
        <path
           d="m407.88 349.5 6.547 19.682z"
           id="path956" />
        <path
           d="m384.07 359.37 9.0788 18.65z"
           id="path958" />
        <path
           d="m345.54 382.53 12.57 16.499z"
           id="path960" />
      </g>
    </g>
    <g
       transform="matrix(-.87517 .56907 -.56907 -.87517 511.36 562.11)"
       id="g986">
      <g
         transform="matrix(-.5412 .0074049 -.0074049 -.5412 433.99 649.43)"
         fill="none"
         stroke="#d6d6d6"
         stroke-width="1.5"
         id="g984">
        <path
           d="m498.83 338.07-1.4384 20.692z"
           id="path966" />
        <path
           d="m488.77 337.49-0.70732 20.73z"
           id="path968" />
        <path
           d="m476.88 337.24 0.41463 20.738z"
           id="path970" />
        <path
           d="m463.16 338.02 1.6095 20.679z"
           id="path972" />
        <path
           d="m447.7 339.8 2.8563 20.544z"
           id="path974" />
        <path
           d="m430.38 343.08 4.4704 20.254z"
           id="path976" />
        <path
           d="m407.88 349.5 6.547 19.682z"
           id="path978" />
        <path
           d="m384.07 359.37 9.0788 18.65z"
           id="path980" />
        <path
           d="m345.54 382.53 12.57 16.499z"
           id="path982" />
      </g>
    </g>
    <g
       transform="matrix(-.92992 -.47436 .47436 -.92992 156.68 757.91)"
       id="g1008">
      <g
         transform="matrix(-.5412 .0074049 -.0074049 -.5412 433.99 649.43)"
         fill="none"
         stroke="#d6d6d6"
         stroke-width="1.5"
         id="g1006">
        <path
           d="m498.83 338.07-1.4384 20.692z"
           id="path988" />
        <path
           d="m488.77 337.49-0.70732 20.73z"
           id="path990" />
        <path
           d="m476.88 337.24 0.41463 20.738z"
           id="path992" />
        <path
           d="m463.16 338.02 1.6095 20.679z"
           id="path994" />
        <path
           d="m447.7 339.8 2.8563 20.544z"
           id="path996" />
        <path
           d="m430.38 343.08 4.4704 20.254z"
           id="path998" />
        <path
           d="m407.88 349.5 6.547 19.682z"
           id="path1000" />
        <path
           d="m384.07 359.37 9.0788 18.65z"
           id="path1002" />
        <path
           d="m345.54 382.53 12.57 16.499z"
           id="path1004" />
      </g>
    </g>
  </g>
  <g
     fill="none"
     stroke="#d6d6d6"
     id="g1024">
    <path
       d="m312 352.5-37.028 0.13994z"
       stroke-width="3.0961"
       id="path1012" />
    <path
       d="m236.14 476.67-16.511-26.973z"
       stroke-width="2.6443"
       id="path1014" />
    <path
       d="m107.56 447.56-16.634 28.724z"
       stroke-width="2.7755"
       id="path1016" />
    <path
       d="m53.731 350.18-31.721 0.11988z"
       stroke-width="2.6524"
       id="path1018" />
    <path
       d="m109.79 256.39-15.657-27.337z"
       stroke-width="2.6342"
       id="path1020" />
    <path
       d="m224.9 258.72 19.719-29.307z"
       stroke-width="3.0959"
       id="path1022" />
  </g>
  <text
     x="213.53433"
     y="443.2099"
     style="font-size:9.333px;line-height:125%;font-family:sans-serif;letter-spacing:0;word-spacing:0;fill:#333333"
     line-height="125%"
     id="text1235">1</text>
  <text
     x="207.24152"
     y="270.99658"
     style="font-size:9.333px;line-height:125%;font-family:sans-serif;letter-spacing:0;word-spacing:0;fill:#333333"
     line-height="125%"
     id="text1093">10</text>
  <text
     x="219.34418"
     y="270.99658"
     style="font-size:9.333px;line-height:125%;font-family:sans-serif;letter-spacing:0;word-spacing:0;fill:#333333"
     line-height="125%"
     id="text1175">0</text>
  <text
     x="225.39142"
     y="270.99658"
     style="font-size:9.333px;line-height:125%;font-family:sans-serif;letter-spacing:0;word-spacing:0;fill:#333333"
     line-height="125%"
     id="text1177">0</text>
  <text
     x="231.43866"
     y="270.99658"
     style="font-size:9.333px;line-height:125%;font-family:sans-serif;letter-spacing:0;word-spacing:0;fill:#333333"
     line-height="125%"
     id="text1179">0</text>
</svg>
