<?xml version="1.0" encoding="UTF-8"?>
<svg width="35" height="35" fill="none" version="1.1" viewBox="0 0 35 35" xml:space="preserve" xmlns="http://www.w3.org/2000/svg"><path d="m11.495 12.657c-3e-3 0.0706 0.0085 0.1411 0.0338 0.2072 0.0253 0.066 0.0638 0.1262 0.1131 0.1768 0.0494 0.0506 0.1086 0.0906 0.174 0.1174 0.0654 0.0269 0.1356 0.0401 0.2063 0.0389h1.8047c0.3019 0 0.5425-0.2472 0.5819-0.5469 0.1969-1.435 1.1812-2.4806 2.9356-2.4806 1.5006 0 2.8744 0.7503 2.8744 2.555 0 1.389-0.8181 2.0278-2.1109 2.999-1.4722 1.0697-2.6382 2.3188-2.555 4.3466l0.0065 0.4747c0.0023 0.1435 0.0609 0.2804 0.1632 0.3811 0.1024 0.1006 0.2402 0.157 0.3837 0.157h1.7741c0.145 0 0.2841-0.0576 0.3866-0.1602 0.1026-0.1025 0.1602-0.2416 0.1602-0.3867v-0.2296c0-1.5707 0.5972-2.0279 2.2094-3.2507 1.3322-1.0128 2.7213-2.1372 2.7213-4.4975 0-3.3053-2.7913-4.9022-5.8472-4.9022-2.7716 0-5.8078 1.2906-6.0157 5.0006zm3.406 12.606c0 1.166 0.9297 2.0278 2.2094 2.0278 1.3321 0 2.2487-0.8618 2.2487-2.0278 0-1.2075-0.9187-2.0562-2.2509-2.0562-1.2775 0-2.2072 0.8487-2.2072 2.0562z" clip-path="url(#clipPath2)" fill="#000"/><defs><clipPath id="clipPath2"><rect width="35" height="35" fill="#fff"/></clipPath></defs><circle cx="17.5" cy="17.5" r="16.419" fill="none" stroke="#000" stroke-width="2.1624"/></svg>
