<?xml version="1.0" encoding="UTF-8"?>
<svg width="330" height="297" viewBox="0 0 330 297" xmlns="http://www.w3.org/2000/svg" xmlns:xlink="http://www.w3.org/1999/xlink"><svg width="33" height="33" viewBox="-0.5 -0.5 9.47 9.47" id="2g" xmlns="http://www.w3.org/2000/svg"><g fill="#5f6368" data-name="Gruppe 8691"><path d="M5.608 8.466h-.496a.496.496 0 01-.496-.496V5.324a.496.496 0 01.496-.496h.496a.496.496 0 01.497.496V7.97a.496.496 0 01-.497.496zm-2.315 0h-.496A.496.496 0 012.3 7.97V5.986a.496.496 0 01.496-.497h.496a.496.496 0 01.496.497V7.97a.496.496 0 01-.497.496zm-2.316 0H.481a.496.496 0 01-.496-.496v-.992a.496.496 0 01.496-.496h.496a.496.496 0 01.497.496v.992a.496.496 0 01-.497.496z" opacity=".7" data-name="Exclusion 6"/><path d="M7.427 3.174h.496a.496.496 0 01.496.496v4.3a.496.496 0 01-.496.496h-.496a.496.496 0 01-.496-.496v-4.3a.496.496 0 01.496-.496z" opacity=".7" data-name="Cellular-Connection-path"/><path d="M2.069 3.834H-.015v-1.39A.695.695 0 01.68 1.75h.694v-.695H-.015V.361h1.39a.695.695 0 01.694.694v.695a.695.695 0 01-.695.695H.68v.694h1.389M4.616 1.75H3.574v.695h.347v.694h-.695V1.055h1.39V.361h-1.39a.695.695 0 00-.694.694V3.14a.695.695 0 00.694.695h.695a.695.695 0 00.695-.695"/></g></svg><svg width="33" height="33" viewBox="-0.5 -0.5 9.47 9.47" id="2g-0" x="33" xmlns="http://www.w3.org/2000/svg"><path d="M2.069 3.834H-.015v-1.39A.695.695 0 01.68 1.75h.694v-.695H-.015V.361h1.39a.695.695 0 01.694.694v.695a.695.695 0 01-.695.695H.68v.694h1.389M4.616 1.75H3.574v.695h.347v.694h-.695V1.055h1.39V.361h-1.39a.695.695 0 00-.694.694V3.14a.695.695 0 00.694.695h.695a.695.695 0 00.695-.695" fill="#5f6368" data-name="Gruppe 8691"/></svg><svg width="33" height="33" viewBox="-0.5 -0.5 9.47 9.47" id="2g-1" y="33" xmlns="http://www.w3.org/2000/svg"><g fill="#5f6368" data-name="Gruppe 8691"><path d="M5.634 8.472h-.496a.496.496 0 01-.496-.496V5.33a.496.496 0 01.496-.496h.496a.496.496 0 01.496.496v2.646a.496.496 0 01-.496.496zM3.318 8.472h-.496a.496.496 0 01-.496-.496V5.99a.496.496 0 01.496-.496h.496a.496.496 0 01.496.496v1.985a.496.496 0 01-.496.496z" opacity=".4"/><path d="M1.003 8.472H.507a.496.496 0 01-.496-.496v-.993a.496.496 0 01.496-.496h.496a.496.496 0 01.496.496v.993a.496.496 0 01-.496.496z"/><path d="M7.453 3.18h.496a.496.496 0 01.496.496v4.3a.496.496 0 01-.496.496h-.496a.496.496 0 01-.497-.496v-4.3a.496.496 0 01.497-.497z" opacity=".4" data-name="Cellular-Connection-path"/><path d="M2.094 3.84H.011V2.45a.695.695 0 01.694-.694H1.4V1.06H.01V.366H1.4a.695.695 0 01.694.695v.695a.695.695 0 01-.694.694H.705v.695h1.39m2.546-1.39H3.599v.695h.347v.695h-.694V1.06H4.64V.366h-1.39a.695.695 0 00-.694.695v2.084a.695.695 0 00.695.694h.694a.695.695 0 00.695-.694"/></g></svg><svg width="33" height="33" viewBox="-0.5 -0.5 9.47 9.47" id="2g-2" x="33" y="33" xmlns="http://www.w3.org/2000/svg"><g fill="#5f6368" stroke-width=".496"><path d="M5.623 8.47h-.496a.496.496 0 01-.496-.496V5.328a.496.496 0 01.496-.496h.496a.496.496 0 01.496.496v2.646a.496.496 0 01-.496.496z" opacity=".4"/><path d="M3.308 8.47h-.496a.496.496 0 01-.497-.496V5.989a.496.496 0 01.497-.496h.496a.496.496 0 01.496.496v1.985a.496.496 0 01-.497.496zM.992 8.47H.496A.496.496 0 010 7.974v-.992a.496.496 0 01.496-.497h.496a.496.496 0 01.496.497v.992a.496.496 0 01-.496.496z"/><path d="M7.442 3.18h.496a.496.496 0 01.496.496v4.3a.496.496 0 01-.496.496h-.496a.496.496 0 01-.496-.496v-4.3a.496.496 0 01.496-.496z" opacity=".4" data-name="Cellular-Connection-path"/><path d="M2.084 3.84H0V2.45a.695.695 0 01.695-.694h.694v-.694H0V.367h1.39a.695.695 0 01.694.695v.694a.695.695 0 01-.695.695H.695v.694h1.389M4.63 1.756H3.588v.695h.348v.694H3.24V1.062h1.39V.367H3.24a.695.695 0 00-.694.695v2.083a.695.695 0 00.694.695h.695a.695.695 0 00.694-.695"/></g></svg><svg width="33" height="33" viewBox="-0.5 -0.5 9.47 9.47" id="2g-3" x="66" xmlns="http://www.w3.org/2000/svg"><g fill="#5f6368" data-name="Gruppe 8691"><path d="M5.634 8.472h-.496a.496.496 0 01-.496-.496V5.33a.496.496 0 01.496-.496h.496a.496.496 0 01.496.496v2.646a.496.496 0 01-.496.496zm-2.316 0h-.496a.496.496 0 01-.496-.496V5.99a.496.496 0 01.496-.496h.496a.496.496 0 01.496.496v1.985a.496.496 0 01-.496.496zm-2.315 0H.507a.496.496 0 01-.496-.496v-.993a.496.496 0 01.496-.496h.496a.496.496 0 01.496.496v.993a.496.496 0 01-.496.496z" data-name="Exclusion 6"/><path d="M7.453 3.18h.496a.496.496 0 01.496.496v4.3a.496.496 0 01-.496.496h-.496a.496.496 0 01-.497-.496v-4.3a.496.496 0 01.497-.497z" opacity=".4" data-name="Cellular-Connection-path"/><path d="M2.094 3.84H.011V2.45a.695.695 0 01.694-.694H1.4V1.06H.01V.366H1.4a.695.695 0 01.694.695v.695a.695.695 0 01-.694.694H.705v.695h1.39m2.546-1.39H3.599v.695h.347v.695h-.694V1.06H4.64V.366h-1.39a.695.695 0 00-.694.695v2.084a.695.695 0 00.695.694h.694a.695.695 0 00.695-.694"/></g></svg><svg width="33" height="33" viewBox="-0.5 -0.5 9.47 9.47" id="2g-4" x="66" y="33" xmlns="http://www.w3.org/2000/svg"><g fill="#5f6368" data-name="Gruppe 8691"><path d="M5.634 8.472h-.496a.496.496 0 01-.496-.496V5.33a.496.496 0 01.496-.496h.496a.496.496 0 01.496.496v2.646a.496.496 0 01-.496.496zm-2.316 0h-.496a.496.496 0 01-.496-.496V5.99a.496.496 0 01.496-.496h.496a.496.496 0 01.496.496v1.985a.496.496 0 01-.496.496zm-2.315 0H.507a.496.496 0 01-.496-.496v-.993a.496.496 0 01.496-.496h.496a.496.496 0 01.496.496v.993a.496.496 0 01-.496.496z" data-name="Exclusion 6"/><path d="M7.453 3.18h.496a.496.496 0 01.496.496v4.3a.496.496 0 01-.496.496h-.496a.496.496 0 01-.497-.496v-4.3a.496.496 0 01.497-.497z" data-name="Cellular-Connection-path"/><path d="M2.094 3.84H.011V2.45a.695.695 0 01.694-.694H1.4V1.06H.01V.366H1.4a.695.695 0 01.694.695v.695a.695.695 0 01-.694.694H.705v.695h1.39m2.546-1.39H3.599v.695h.347v.695h-.694V1.06H4.64V.366h-1.39a.695.695 0 00-.694.695v2.084a.695.695 0 00.695.694h.694a.695.695 0 00.695-.694"/></g></svg><svg width="33" height="33" viewBox="-0.5 -0.5 9.47 9.47" id="3g" y="66" xmlns="http://www.w3.org/2000/svg"><g fill="#5f6368" stroke-width="90.006"><path d="M2.084 3.14v-.52a.519.519 0 00-.521-.522.519.519 0 00.52-.52v-.522A.695.695 0 001.39.362H0v.694h1.39v.695H.694v.694h.694v.695H0v.695h1.39a.695.695 0 00.694-.695m2.546 0V1.75H3.59v.695h.347v.695H3.24V1.056h1.39V.362H3.24a.695.695 0 00-.694.694V3.14a.695.695 0 00.694.695h.695a.695.695 0 00.694-.695z"/><path d="M5.623 8.466h-.496a.496.496 0 01-.496-.497V5.324a.496.496 0 01.496-.497h.496a.496.496 0 01.496.497v2.645a.496.496 0 01-.496.497zm-2.315 0h-.496a.496.496 0 01-.497-.497V5.985a.496.496 0 01.497-.496h.496a.496.496 0 01.496.496v1.984a.496.496 0 01-.497.497zm-2.316 0H.496A.496.496 0 010 7.969v-.992a.496.496 0 01.496-.496h.496a.496.496 0 01.496.496v.992a.496.496 0 01-.496.497z" opacity=".7" data-name="Exclusion 6"/><path d="M7.442 3.173h.496a.496.496 0 01.496.496v4.3a.496.496 0 01-.496.497h-.496a.496.496 0 01-.496-.497v-4.3a.496.496 0 01.496-.496z" opacity=".7" data-name="Cellular-Connection-path"/></g></svg><svg width="33" height="33" viewBox="-0.5 -0.5 9.47 9.47" id="3g-0" x="33" y="66" xmlns="http://www.w3.org/2000/svg"><path d="M2.069 3.14v-.522a.519.519 0 00-.521-.52.519.519 0 00.521-.522v-.52A.695.695 0 001.374.36H-.015v.694h1.39v.695H.68v.695h.694v.694H-.015v.695h1.39a.695.695 0 00.694-.695m2.547 0V1.75H3.574v.695h.347v.694h-.695V1.055h1.39V.361h-1.39a.695.695 0 00-.694.694V3.14a.695.695 0 00.694.695h.695a.695.695 0 00.695-.695z" fill="#5f6368" data-name="Gruppe 8691"/></svg><svg width="33" height="33" viewBox="-0.5 -0.5 9.47 9.47" id="3g-1" x="66" y="66" xmlns="http://www.w3.org/2000/svg"><g fill="#5f6368" stroke-width=".496"><path d="M5.623 8.47h-.496a.496.496 0 01-.496-.496V5.328a.496.496 0 01.496-.496h.496a.496.496 0 01.496.496v2.646a.496.496 0 01-.496.496zM3.308 8.47h-.496a.496.496 0 01-.497-.496V5.989a.496.496 0 01.497-.496h.496a.496.496 0 01.496.496v1.985a.496.496 0 01-.497.496z" opacity=".4"/><path d="M.992 8.47H.496A.496.496 0 010 7.974v-.992a.496.496 0 01.496-.497h.496a.496.496 0 01.496.497v.992a.496.496 0 01-.496.496zM2.084 3.14v-.52a.519.519 0 00-.521-.522.519.519 0 00.52-.52v-.522A.695.695 0 001.39.362H0v.694h1.39v.695H.695v.694h.694v.695H0v.695h1.39a.695.695 0 00.695-.695m2.546 0V1.75H3.588v.695h.348v.695H3.24V1.056h1.39V.362H3.24a.695.695 0 00-.694.694V3.14a.695.695 0 00.694.695h.695a.695.695 0 00.694-.695z"/><path d="M7.442 3.18h.496a.496.496 0 01.496.496v4.3a.496.496 0 01-.496.496h-.496a.496.496 0 01-.496-.496v-4.3a.496.496 0 01.496-.496z" opacity=".4" data-name="Cellular-Connection-path"/></g></svg><svg width="33" height="33" viewBox="-0.5 -0.5 9.47 9.47" id="3g-2" x="99" xmlns="http://www.w3.org/2000/svg"><g fill="#5f6368" stroke-width=".496"><path d="M5.623 8.47h-.496a.496.496 0 01-.496-.496V5.328a.496.496 0 01.496-.496h.496a.496.496 0 01.496.496v2.646a.496.496 0 01-.496.496z" opacity=".4"/><path d="M3.308 8.47h-.496a.496.496 0 01-.497-.496V5.989a.496.496 0 01.497-.496h.496a.496.496 0 01.496.496v1.985a.496.496 0 01-.497.496zM.992 8.47H.496A.496.496 0 010 7.974v-.992a.496.496 0 01.496-.497h.496a.496.496 0 01.496.497v.992a.496.496 0 01-.496.496zM2.084 3.14v-.52a.519.519 0 00-.521-.522.519.519 0 00.52-.52v-.522A.695.695 0 001.39.362H0v.694h1.39v.695H.695v.694h.694v.695H0v.695h1.39a.695.695 0 00.695-.695m2.546 0V1.75H3.588v.695h.348v.695H3.24V1.056h1.39V.362H3.24a.695.695 0 00-.694.694V3.14a.695.695 0 00.694.695h.695a.695.695 0 00.694-.695z"/><path d="M7.442 3.18h.496a.496.496 0 01.496.496v4.3a.496.496 0 01-.496.496h-.496a.496.496 0 01-.496-.496v-4.3a.496.496 0 01.496-.496z" opacity=".4" data-name="Cellular-Connection-path"/></g></svg><svg width="33" height="33" viewBox="-0.5 -0.5 9.47 9.47" id="3g-3" x="99" y="33" xmlns="http://www.w3.org/2000/svg"><g fill="#5f6368" stroke-width=".496"><path d="M2.084 3.14v-.52a.519.519 0 00-.521-.522.519.519 0 00.52-.52v-.522A.695.695 0 001.39.362H0v.694h1.39v.695H.695v.694h.694v.695H0v.695h1.39a.695.695 0 00.695-.695m2.546 0V1.75H3.588v.695h.348v.695H3.24V1.056h1.39V.362H3.24a.695.695 0 00-.694.694V3.14a.695.695 0 00.694.695h.695a.695.695 0 00.694-.695z"/><path d="M5.623 8.47h-.496a.496.496 0 01-.496-.496V5.328a.496.496 0 01.496-.496h.496a.496.496 0 01.496.496v2.646a.496.496 0 01-.496.496zm-2.315 0h-.496a.496.496 0 01-.497-.496V5.989a.496.496 0 01.497-.496h.496a.496.496 0 01.496.496v1.985a.496.496 0 01-.497.496zm-2.316 0H.496A.496.496 0 010 7.974v-.992a.496.496 0 01.496-.497h.496a.496.496 0 01.496.497v.992a.496.496 0 01-.496.496z" data-name="Exclusion 6"/><path d="M7.442 3.18h.496a.496.496 0 01.496.496v4.3a.496.496 0 01-.496.496h-.496a.496.496 0 01-.496-.496v-4.3a.496.496 0 01.496-.496z" opacity=".4" data-name="Cellular-Connection-path"/></g></svg><svg width="33" height="33" viewBox="-0.5 -0.5 9.47 9.47" id="3g-4" x="99" y="66" xmlns="http://www.w3.org/2000/svg"><g fill="#5f6368" stroke-width=".496"><path d="M2.084 3.14v-.52a.519.519 0 00-.521-.522.519.519 0 00.52-.52v-.522A.695.695 0 001.39.362H0v.694h1.39v.695H.695v.694h.694v.695H0v.695h1.39a.695.695 0 00.695-.695m2.546 0V1.75H3.588v.695h.348v.695H3.24V1.056h1.39V.362H3.24a.695.695 0 00-.694.694V3.14a.695.695 0 00.694.695h.695a.695.695 0 00.694-.695z"/><path d="M5.623 8.47h-.496a.496.496 0 01-.496-.496V5.328a.496.496 0 01.496-.496h.496a.496.496 0 01.496.496v2.646a.496.496 0 01-.496.496zm-2.315 0h-.496a.496.496 0 01-.497-.496V5.989a.496.496 0 01.497-.496h.496a.496.496 0 01.496.496v1.985a.496.496 0 01-.497.496zm-2.316 0H.496A.496.496 0 010 7.974v-.992a.496.496 0 01.496-.497h.496a.496.496 0 01.496.497v.992a.496.496 0 01-.496.496z" data-name="Exclusion 6"/><path d="M7.442 3.18h.496a.496.496 0 01.496.496v4.3a.496.496 0 01-.496.496h-.496a.496.496 0 01-.496-.496v-4.3a.496.496 0 01.496-.496z" data-name="Cellular-Connection-path"/></g></svg><svg width="33" height="33" viewBox="-0.5 -0.5 9.47 9.47" id="4g" y="99" xmlns="http://www.w3.org/2000/svg"><g fill="#5f6368"><path d="M0 .362v2.083h1.39v1.39h.694V.362H1.39v1.39H.695V.362zm3.241 0a.694.694 0 00-.694.695V3.14c0 .384.31.695.694.695h.695a.695.695 0 00.695-.695V1.752H3.589v.694h.347v.694H3.24V1.057h1.39V.362z"/><path d="M5.623 8.466h-.496a.496.496 0 01-.496-.497V5.324a.496.496 0 01.496-.497h.496a.496.496 0 01.496.497v2.645a.496.496 0 01-.496.497zm-2.315 0h-.496a.496.496 0 01-.497-.497V5.985a.496.496 0 01.497-.496h.496a.496.496 0 01.496.496v1.984a.496.496 0 01-.497.497zm-2.316 0H.496A.496.496 0 010 7.969v-.992a.496.496 0 01.496-.496h.496a.496.496 0 01.496.496v.992a.496.496 0 01-.496.497z" opacity=".7" data-name="Exclusion 6"/><path d="M7.442 3.173h.496a.496.496 0 01.496.496v4.3a.496.496 0 01-.496.497h-.496a.496.496 0 01-.496-.497v-4.3a.496.496 0 01.496-.496z" opacity=".7" data-name="Cellular-Connection-path"/></g></svg><svg width="33" height="33" viewBox="-0.5 -0.5 9.47 9.47" id="4g-0" x="33" y="99" xmlns="http://www.w3.org/2000/svg"><path d="M-.015.36v2.084h1.389v1.39h.695V.36h-.695v1.39H.679V.36zm3.24 0a.694.694 0 00-.693.696v2.083c0 .384.31.695.694.695h.694a.695.695 0 00.695-.695V1.75H3.573v.695h.347v.694h-.694V1.056h1.39V.36z" fill="#5f6368" data-name="Gruppe 8691"/></svg><svg width="33" height="33" viewBox="-0.5 -0.5 9.47 9.47" id="4g-1" x="66" y="99" xmlns="http://www.w3.org/2000/svg"><g fill="#5f6368"><path d="M0 .37v2.083h1.39v1.39h.694V.37H1.39v1.39H.695V.37zm3.241 0a.694.694 0 00-.694.695v2.083c0 .384.31.695.694.695h.695a.695.695 0 00.695-.695V1.76H3.589v.694h.347v.694H3.24V1.065h1.39V.37z"/><g stroke-width=".496"><path d="M5.623 8.47h-.496a.496.496 0 01-.496-.496V5.328a.496.496 0 01.496-.496h.496a.496.496 0 01.496.496v2.646a.496.496 0 01-.496.496zM3.308 8.47h-.496a.496.496 0 01-.497-.496V5.989a.496.496 0 01.497-.496h.496a.496.496 0 01.496.496v1.985a.496.496 0 01-.497.496z" opacity=".4"/><path d="M.992 8.47H.496A.496.496 0 010 7.974v-.992a.496.496 0 01.496-.497h.496a.496.496 0 01.496.497v.992a.496.496 0 01-.496.496z"/><path d="M7.442 3.18h.496a.496.496 0 01.496.496v4.3a.496.496 0 01-.496.496h-.496a.496.496 0 01-.496-.496v-4.3a.496.496 0 01.496-.496z" opacity=".4" data-name="Cellular-Connection-path"/></g></g></svg><svg width="33" height="33" viewBox="-0.5 -0.5 9.47 9.47" id="4g-2" x="99" y="99" xmlns="http://www.w3.org/2000/svg"><g fill="#5f6368"><path d="M0 .37v2.083h1.39v1.39h.694V.37H1.39v1.39H.695V.37zm3.241 0a.694.694 0 00-.694.695v2.083c0 .384.31.695.694.695h.695a.695.695 0 00.695-.695V1.76H3.589v.694h.347v.694H3.24V1.065h1.39V.37z"/><g stroke-width=".496"><path d="M5.623 8.47h-.496a.496.496 0 01-.496-.496V5.328a.496.496 0 01.496-.496h.496a.496.496 0 01.496.496v2.646a.496.496 0 01-.496.496z" opacity=".4"/><path d="M3.308 8.47h-.496a.496.496 0 01-.497-.496V5.989a.496.496 0 01.497-.496h.496a.496.496 0 01.496.496v1.985a.496.496 0 01-.497.496zM.992 8.47H.496A.496.496 0 010 7.974v-.992a.496.496 0 01.496-.497h.496a.496.496 0 01.496.497v.992a.496.496 0 01-.496.496z"/><path d="M7.442 3.18h.496a.496.496 0 01.496.496v4.3a.496.496 0 01-.496.496h-.496a.496.496 0 01-.496-.496v-4.3a.496.496 0 01.496-.496z" opacity=".4" data-name="Cellular-Connection-path"/></g></g></svg><svg width="33" height="33" viewBox="-0.5 -0.5 9.47 9.47" id="4g-3" x="132" xmlns="http://www.w3.org/2000/svg"><g fill="#5f6368"><path d="M0 .37v2.083h1.39v1.39h.694V.37H1.39v1.39H.695V.37zm3.241 0a.694.694 0 00-.694.695v2.083c0 .384.31.695.694.695h.695a.695.695 0 00.695-.695V1.76H3.589v.694h.347v.694H3.24V1.065h1.39V.37z"/><path d="M5.623 8.47h-.496a.496.496 0 01-.496-.496V5.328a.496.496 0 01.496-.496h.496a.496.496 0 01.496.496v2.646a.496.496 0 01-.496.496zm-2.315 0h-.496a.496.496 0 01-.497-.496V5.989a.496.496 0 01.497-.496h.496a.496.496 0 01.496.496v1.985a.496.496 0 01-.497.496zm-2.316 0H.496A.496.496 0 010 7.974v-.992a.496.496 0 01.496-.497h.496a.496.496 0 01.496.497v.992a.496.496 0 01-.496.496z" data-name="Exclusion 6"/><path d="M7.442 3.18h.496a.496.496 0 01.496.496v4.3a.496.496 0 01-.496.496h-.496a.496.496 0 01-.496-.496v-4.3a.496.496 0 01.496-.496z" opacity=".4" data-name="Cellular-Connection-path"/></g></svg><svg width="33" height="33" viewBox="-0.5 -0.5 9.47 9.47" id="4g-4" x="132" y="33" xmlns="http://www.w3.org/2000/svg"><g fill="#5f6368"><path d="M0 .37v2.083h1.39v1.39h.694V.37H1.39v1.39H.695V.37zm3.241 0a.694.694 0 00-.694.695v2.083c0 .384.31.695.694.695h.695a.695.695 0 00.695-.695V1.76H3.589v.694h.347v.694H3.24V1.065h1.39V.37z"/><path d="M5.623 8.47h-.496a.496.496 0 01-.496-.496V5.328a.496.496 0 01.496-.496h.496a.496.496 0 01.496.496v2.646a.496.496 0 01-.496.496zm-2.315 0h-.496a.496.496 0 01-.497-.496V5.989a.496.496 0 01.497-.496h.496a.496.496 0 01.496.496v1.985a.496.496 0 01-.497.496zm-2.316 0H.496A.496.496 0 010 7.974v-.992a.496.496 0 01.496-.497h.496a.496.496 0 01.496.497v.992a.496.496 0 01-.496.496z" data-name="Exclusion 6"/><path d="M7.442 3.18h.496a.496.496 0 01.496.496v4.3a.496.496 0 01-.496.496h-.496a.496.496 0 01-.496-.496v-4.3a.496.496 0 01.496-.496z" data-name="Cellular-Connection-path"/></g></svg><svg width="33" height="33" viewBox="-0.5 -0.5 9.47 9.47" id="5g" x="132" y="66" xmlns="http://www.w3.org/2000/svg"><g fill="#5f6368" stroke-width="90.006"><path d="M4.63 3.14V1.75H3.59v.695h.347v.695H3.24V1.056h1.39V.362H3.24a.695.695 0 00-.694.694V3.14a.695.695 0 00.694.695h.695a.695.695 0 00.694-.695M1.852.362H.232v2.083h.925v.695H.231v.695h1.274a.347.347 0 00.347-.348V2.098a.347.347 0 00-.347-.347h-.58v-.695h.927z"/><path d="M5.623 8.466h-.496a.496.496 0 01-.496-.497V5.324a.496.496 0 01.496-.497h.496a.496.496 0 01.496.497v2.645a.496.496 0 01-.496.497zm-2.315 0h-.496a.496.496 0 01-.497-.497V5.985a.496.496 0 01.497-.496h.496a.496.496 0 01.496.496v1.984a.496.496 0 01-.497.497zm-2.316 0H.496A.496.496 0 010 7.969v-.992a.496.496 0 01.496-.496h.496a.496.496 0 01.496.496v.992a.496.496 0 01-.496.497z" opacity=".7" data-name="Exclusion 6"/><path d="M7.442 3.173h.496a.496.496 0 01.496.496v4.3a.496.496 0 01-.496.497h-.496a.496.496 0 01-.496-.497v-4.3a.496.496 0 01.496-.496z" opacity=".7" data-name="Cellular-Connection-path"/></g></svg><svg width="33" height="33" viewBox="-0.5 -0.5 9.47 9.47" id="5g-0" x="132" y="99" xmlns="http://www.w3.org/2000/svg"><path d="M4.6 3.14V1.75H3.556v.695h.348v.694H3.21V1.055H4.6V.361H3.21a.695.695 0 00-.694.694V3.14a.695.695 0 00.694.695h.695a.695.695 0 00.694-.695M1.821.361H.2v2.084h.925v.694H.2v.695h1.274a.347.347 0 00.347-.348V2.097a.347.347 0 00-.347-.347h-.58v-.695h.927z" fill="#5f6368" data-name="Gruppe 8691"/></svg><svg width="33" height="33" viewBox="-0.5 -0.5 9.47 9.47" id="5g-1" y="132" xmlns="http://www.w3.org/2000/svg"><g fill="#5f6368" stroke-width=".496"><path d="M4.63 3.14V1.75H3.588v.695h.348v.695H3.24V1.056h1.39V.362H3.24a.695.695 0 00-.694.694V3.14a.695.695 0 00.694.695h.695a.695.695 0 00.694-.695M1.852.362H.232v2.083h.925v.695H.231v.695h1.274a.347.347 0 00.347-.348V2.098a.347.347 0 00-.347-.347h-.58v-.695h.927z"/><path d="M5.623 8.47h-.496a.496.496 0 01-.496-.496V5.328a.496.496 0 01.496-.496h.496a.496.496 0 01.496.496v2.646a.496.496 0 01-.496.496zM3.308 8.47h-.496a.496.496 0 01-.497-.496V5.989a.496.496 0 01.497-.496h.496a.496.496 0 01.496.496v1.985a.496.496 0 01-.497.496z" opacity=".4"/><path d="M.992 8.47H.496A.496.496 0 010 7.974v-.992a.496.496 0 01.496-.497h.496a.496.496 0 01.496.497v.992a.496.496 0 01-.496.496z"/><path d="M7.442 3.18h.496a.496.496 0 01.496.496v4.3a.496.496 0 01-.496.496h-.496a.496.496 0 01-.496-.496v-4.3a.496.496 0 01.496-.496z" opacity=".4" data-name="Cellular-Connection-path"/></g></svg><svg width="33" height="33" viewBox="-0.5 -0.5 9.47 9.47" id="5g-2" x="33" y="132" xmlns="http://www.w3.org/2000/svg"><g fill="#5f6368" stroke-width=".496"><path d="M4.63 3.14V1.75H3.588v.695h.348v.695H3.24V1.056h1.39V.362H3.24a.695.695 0 00-.694.694V3.14a.695.695 0 00.694.695h.695a.695.695 0 00.694-.695M1.852.362H.232v2.083h.925v.695H.231v.695h1.274a.347.347 0 00.347-.348V2.098a.347.347 0 00-.347-.347h-.58v-.695h.927z"/><path d="M5.623 8.47h-.496a.496.496 0 01-.496-.496V5.328a.496.496 0 01.496-.496h.496a.496.496 0 01.496.496v2.646a.496.496 0 01-.496.496z" opacity=".4"/><path d="M3.308 8.47h-.496a.496.496 0 01-.497-.496V5.989a.496.496 0 01.497-.496h.496a.496.496 0 01.496.496v1.985a.496.496 0 01-.497.496zM.992 8.47H.496A.496.496 0 010 7.974v-.992a.496.496 0 01.496-.497h.496a.496.496 0 01.496.497v.992a.496.496 0 01-.496.496z"/><path d="M7.442 3.18h.496a.496.496 0 01.496.496v4.3a.496.496 0 01-.496.496h-.496a.496.496 0 01-.496-.496v-4.3a.496.496 0 01.496-.496z" opacity=".4" data-name="Cellular-Connection-path"/></g></svg><svg width="33" height="33" viewBox="-0.5 -0.5 9.47 9.47" id="5g-3" x="66" y="132" xmlns="http://www.w3.org/2000/svg"><g fill="#5f6368" stroke-width=".496"><path d="M4.63 3.14V1.75H3.588v.695h.348v.695H3.24V1.056h1.39V.362H3.24a.695.695 0 00-.694.694V3.14a.695.695 0 00.694.695h.695a.695.695 0 00.694-.695M1.852.362H.232v2.083h.925v.695H.231v.695h1.274a.347.347 0 00.347-.348V2.098a.347.347 0 00-.347-.347h-.58v-.695h.927z"/><path d="M5.623 8.47h-.496a.496.496 0 01-.496-.496V5.328a.496.496 0 01.496-.496h.496a.496.496 0 01.496.496v2.646a.496.496 0 01-.496.496zm-2.315 0h-.496a.496.496 0 01-.497-.496V5.989a.496.496 0 01.497-.496h.496a.496.496 0 01.496.496v1.985a.496.496 0 01-.497.496zm-2.316 0H.496A.496.496 0 010 7.974v-.992a.496.496 0 01.496-.497h.496a.496.496 0 01.496.497v.992a.496.496 0 01-.496.496z" data-name="Exclusion 6"/><path d="M7.442 3.18h.496a.496.496 0 01.496.496v4.3a.496.496 0 01-.496.496h-.496a.496.496 0 01-.496-.496v-4.3a.496.496 0 01.496-.496z" opacity=".4" data-name="Cellular-Connection-path"/></g></svg><svg width="33" height="33" viewBox="-0.5 -0.5 9.47 9.47" id="5g-4" x="99" y="132" xmlns="http://www.w3.org/2000/svg"><g fill="#5f6368" stroke-width=".496"><path d="M4.63 3.14V1.75H3.588v.695h.348v.695H3.24V1.056h1.39V.362H3.24a.695.695 0 00-.694.694V3.14a.695.695 0 00.694.695h.695a.695.695 0 00.694-.695M1.852.362H.232v2.083h.925v.695H.231v.695h1.274a.347.347 0 00.347-.348V2.098a.347.347 0 00-.347-.347h-.58v-.695h.927z"/><path d="M5.623 8.47h-.496a.496.496 0 01-.496-.496V5.328a.496.496 0 01.496-.496h.496a.496.496 0 01.496.496v2.646a.496.496 0 01-.496.496zm-2.315 0h-.496a.496.496 0 01-.497-.496V5.989a.496.496 0 01.497-.496h.496a.496.496 0 01.496.496v1.985a.496.496 0 01-.497.496zm-2.316 0H.496A.496.496 0 010 7.974v-.992a.496.496 0 01.496-.497h.496a.496.496 0 01.496.497v.992a.496.496 0 01-.496.496z" data-name="Exclusion 6"/><path d="M7.442 3.18h.496a.496.496 0 01.496.496v4.3a.496.496 0 01-.496.496h-.496a.496.496 0 01-.496-.496v-4.3a.496.496 0 01.496-.496z" data-name="Cellular-Connection-path"/></g></svg><svg width="33" height="33" viewBox="-0.5 -0.5 9.47 9.47" id="bluetooth" x="132" y="132" xmlns="http://www.w3.org/2000/svg"><path d="M4.847 4.3L6.38 2.591 3.965.001v3.411L2.541 1.988l-.52.52L3.81 4.3 2.022 6.093l.519.52 1.424-1.425.045 3.279 2.456-2.458zm.676-1.703l-.826.826-.006-1.658zm-.826 2.58l.826.826-.832.832z" fill="#5f6368" data-name="Gruppe 8691"/></svg><svg width="33" height="33" viewBox="-0.5 -0.5 9.47 9.47" id="browser" x="165" xmlns="http://www.w3.org/2000/svg"><path d="M5.744 2.6C5.591 1.765 5.388.87 4.78.243 4.47-.096 3.913-.052 3.632.3c-.563.631-.763 1.49-.91 2.3h3.022zm-3.15 1.638c.046.338-.068.878.128 1.093h3.092c.075-.726.075-1.46 0-2.185H2.651c-.038.363-.057.727-.057 1.092zM8.138 2.6A4.25 4.25 0 005.44.182c.497.71.716 1.573.854 2.417h1.844zM3.024.182A4.248 4.248 0 00.328 2.599h1.844c.137-.844.356-1.707.852-2.417zm5.297 2.964H6.362c.075.726.075 1.459 0 2.185H8.32a4.181 4.181 0 00.002-2.185zM2.048 4.238c-.057-.338.133-.877-.016-1.092H.146a4.166 4.166 0 000 2.185h1.956a11.558 11.558 0 01-.054-1.093zm.674 1.64c.154.832.356 1.728.966 2.354.308.34.866.297 1.147-.054.562-.632.762-1.49.91-2.3H2.721zm2.72 2.417A4.254 4.254 0 008.14 5.877H6.296c-.139.844-.358 1.708-.854 2.418zM.328 5.877a4.25 4.25 0 002.698 2.418c-.496-.711-.715-1.573-.854-2.418H.328z" fill="#5f6368"/></svg><svg width="33" height="33" viewBox="-0.5 -0.5 9.47 9.47" id="calendar" x="165" y="33" xmlns="http://www.w3.org/2000/svg"><g data-name="Gruppe 8694"><path d="M2.196 3.82h.847v.847h-.847zm5.927-2.117V7.63a.85.85 0 01-.847.847H1.35a.847.847 0 01-.847-.847l.004-5.927A.843.843 0 011.35.857h.423V.01h.847v.847h3.386V.01h.847v.847h.423a.85.85 0 01.847.846zM1.35 2.55h5.926v-.847H1.35zm5.926 5.08V3.397H1.35V7.63zM5.583 4.667h.847V3.82h-.847zm-1.693 0h.846V3.82H3.89z" fill="#5f6368" data-name="Pfad 2108"/></g></svg><svg width="33" height="33" viewBox="-0.5 -0.5 9.47 9.47" id="check" x="165" y="66" xmlns="http://www.w3.org/2000/svg"><g data-name="Gruppe 112"><circle transform="translate(.52 .54) scale(.52917)" cx="7" cy="7" r="7" fill="#59b200" opacity=".1" data-name="Ellipse 18"/></g><path d="M5.871 3.075a.126.126 0 00-.09.037l-2.137 2.14a.104.104 0 01-.147 0l-.999-.998a.124.124 0 00-.176 0L2 4.575a.124.124 0 000 .177l1.483 1.48c.05.05.125.05.175 0L6.28 3.61a.121.121 0 000-.175l-.322-.323a.122.122 0 00-.087-.037z" fill="#59b200"/></svg><svg width="33" height="33" viewBox="-0.5 -0.5 9.47 9.47" id="cross" x="165" y="99" xmlns="http://www.w3.org/2000/svg"><g transform="translate(-4.502 11.678)"><g data-name="Gruppe 112"><circle transform="translate(5.042 -11.166) scale(.52917)" cx="7" cy="7" r="7" fill="#f5001c" opacity=".1" data-name="Ellipse 18"/></g><rect transform="rotate(45)" x=".522" y="-13.594" width=".725" height="4.303" ry=".21" fill="#f5001c" paint-order="stroke fill markers"/><rect transform="rotate(-45)" x="11.08" y="-1.267" width=".725" height="4.303" ry=".21" fill="#f5001c" paint-order="stroke fill markers"/></g></svg><svg width="33" height="33" viewBox="-0.5 -0.5 9.47 9.47" id="down-0" x="165" y="132" xmlns="http://www.w3.org/2000/svg"><g data-name="Gruppe 8694"><g transform="translate(-2031.982 -58.2) scale(.52916)" data-name="Gruppe 112"><circle transform="translate(3841 111)" cx="7" cy="7" r="7" fill="#5f6368" opacity=".1" data-name="Ellipse 18"/><g data-name="Gruppe 97"><path d="M3840 110h16v16h-16z" fill="none" data-name="Pfad 2095"/><path d="M3849.45 115h-2.9v3H3844l4 4 4-4h-2.55z" fill="#5f6368" opacity=".6" data-name="Pfad 2096"/></g></g></g></svg><svg width="33" height="33" viewBox="-0.5 -0.5 9.47 9.47" id="down-1" y="165" xmlns="http://www.w3.org/2000/svg"><g transform="translate(-2032 -58.2) scale(.52917)" data-name="Gruppe 112"><circle transform="translate(3841 111)" cx="7" cy="7" r="7" fill="#f5001c" opacity=".1" data-name="Ellipse 18"/><g data-name="Gruppe 97"><path d="M3840 110h16v16h-16z" fill="none" data-name="Pfad 2095"/><path d="M3849.45 115h-2.9v3H3844l4 4 4-4h-2.55z" fill="#f5001c" data-name="Pfad 2096"/></g></g></svg><svg width="33" height="33" viewBox="-0.5 -0.5 9.47 9.47" id="down-2" x="33" y="165" xmlns="http://www.w3.org/2000/svg"><g transform="translate(-2032 -58.2) scale(.52917)" data-name="Gruppe 112"><circle transform="translate(3841 111)" cx="7" cy="7" r="7" fill="#ffba00" opacity=".1" data-name="Ellipse 18"/><g data-name="Gruppe 97"><path d="M3840 110h16v16h-16z" fill="none" data-name="Pfad 2095"/><path d="M3849.45 115h-2.9v3H3844l4 4 4-4h-2.55z" fill="#ffba00" data-name="Pfad 2096"/></g></g></svg><svg width="33" height="33" viewBox="-0.5 -0.5 9.47 9.47" id="down-3" x="66" y="165" xmlns="http://www.w3.org/2000/svg"><g transform="translate(-2032 -58.2) scale(.52917)" data-name="Gruppe 112"><circle transform="translate(3841 111)" cx="7" cy="7" r="7" fill="#59b200" opacity=".1" data-name="Ellipse 18"/><g data-name="Gruppe 97"><path d="M3840 110h16v16h-16z" fill="none" data-name="Pfad 2095"/><path d="M3849.45 115h-2.9v3H3844l4 4 4-4h-2.55z" fill="#59b200" data-name="Pfad 2096"/></g></g></svg><svg width="33" height="33" viewBox="-0.5 -0.5 9.47 9.47" id="down-4" x="99" y="165" xmlns="http://www.w3.org/2000/svg"><g transform="translate(-2032 -58.2) scale(.52917)" data-name="Gruppe 112"><circle transform="translate(3841 111)" cx="7" cy="7" r="7" fill="#007c0e" opacity=".1" data-name="Ellipse 18"/><g data-name="Gruppe 97"><path d="M3840 110h16v16h-16z" fill="none" data-name="Pfad 2095"/><path d="M3849.45 115h-2.9v3H3844l4 4 4-4h-2.55z" fill="#007c0e" data-name="Pfad 2096"/></g></g></svg><svg width="33" height="33" viewBox="-0.5 -0.5 9.47 9.47" id="empty" x="132" y="165" xmlns="http://www.w3.org/2000/svg"/><svg width="33" height="33" viewBox="-0.5 -0.5 9.47 9.47" id="ethernet" x="165" y="165" xmlns="http://www.w3.org/2000/svg"><path d="M8.171 4.23h-.793v-.793a.265.265 0 00-.265-.265H6.32V2.38a.265.265 0 00-.264-.265H2.35a.265.265 0 00-.265.265v.793h-.794a.265.265 0 00-.264.265v.794H.234a.265.265 0 00-.265.264V8.2c0 .146.12.265.265.265h1.323V6.347h.529v2.117h1.058V6.347h.53v2.117h1.058V6.347h.529v2.117h1.058V6.347h.53v2.117H8.17c.146 0 .265-.119.265-.265V4.495a.265.265 0 00-.265-.264z" fill="#5f6368" data-name="Gruppe 8691"/></svg><svg width="33" height="33" viewBox="-0.5 -0.5 9.47 9.47" id="history" x="198" xmlns="http://www.w3.org/2000/svg"><g data-name="Gruppe 8694"><path d="M4.874 1.218a3.627 3.627 0 00-3.628 3.628H.037l1.568 1.567.028.057 1.629-1.624h-1.21a2.835 2.835 0 11.83 1.99l-.572.573a3.627 3.627 0 102.564-6.19zM4.47 3.234v2.015l1.725 1.023.29-.487-1.41-.839V3.234z" fill="#5f6368" data-name="Pfad 4630"/></g></svg><svg width="33" height="33" viewBox="-0.5 -0.5 9.47 9.47" id="home" x="198" y="33" xmlns="http://www.w3.org/2000/svg"><g data-name="Gruppe 8694"><g data-name="Icon / Favorite / Filled"><path d="M2.883 7.534V4.712h2.822v2.822H7.116v-4.24l-2.755-2.11-2.89 2.123v4.227H2.884m.94.94H.531V2.83L4.372.008 8.057 2.83v5.644H4.764V5.652h-.94v2.822z" fill="#5f6368" data-name="Differenzmenge 1"/></g></g></svg><svg width="33" height="33" viewBox="-0.5 -0.5 9.47 9.47" id="map" x="198" y="66" xmlns="http://www.w3.org/2000/svg"><g data-name="Gruppe 8694"><path d="M2.848.006L.195.9a.235.235 0 00-.169.226v7.112a.235.235 0 00.235.235l.075-.014 2.512-.974 2.822.988 2.653-.894a.235.235 0 00.17-.225V.242a.235.235 0 00-.235-.236l-.076.015L5.67.994 2.848.006m-.47 1.153v5.503l-1.411.546V1.634l1.41-.475m.942.01l1.881.658V7.31L3.32 6.653V1.168m4.233.108v5.57l-1.411.475V1.822l1.411-.546" fill="#5f6368" data-name="Gruppe 9149"/></g></svg><svg width="33" height="33" viewBox="-0.5 -0.5 9.47 9.47" id="marker" x="198" y="99" xmlns="http://www.w3.org/2000/svg"><path d="M5.613 2.821q0-.584-.413-.998t-.998-.413-.997.413-.414.998.414.998.997.413.998-.413.413-.998zm1.411 0q0 .6-.181.987L4.836 8.074q-.088.182-.262.287t-.372.105-.372-.105-.256-.287L1.562 3.808q-.182-.386-.182-.987 0-1.169.827-1.995t1.995-.827 1.996.827.826 1.995z" fill="#5f6368"/></svg><svg width="33" height="33" viewBox="-0.5 -0.5 9.47 9.47" id="marker-line" x="198" y="132" xmlns="http://www.w3.org/2000/svg"><g fill="#5f6368"><path d="M4.204.002A2.72 2.72 0 002.21.83a2.72 2.72 0 00-.827 1.996c0 .4.06.729.182.986l2.012 4.267c.055.121.14.217.256.286a.709.709 0 00.744 0 .669.669 0 00.262-.286L6.844 3.81c.122-.257.182-.586.182-.986A2.72 2.72 0 006.2.829 2.72 2.72 0 004.204.002zm-.019.554c.145-.002.29.009.432.032.374.06.734.213 1.031.45.462.356.804.88.895 1.46.06.363.048.742-.06 1.095-.094.262-.235.505-.346.76-.507 1.073-1.006 2.15-1.52 3.22a.485.485 0 01-.866-.143c-.595-1.272-1.206-2.536-1.79-3.814-.13-.39-.124-.812-.051-1.214A2.392 2.392 0 013.475.67c.23-.074.47-.111.71-.114z"/><path d="M4.234 1.26a1.618 1.618 0 10-.045 3.235 1.618 1.618 0 00.045-3.235zm-.049.421c.329 0 .609.116.841.349.233.232.349.512.349.84 0 .33-.116.61-.349.842-.232.232-.512.348-.84.348s-.61-.116-.842-.348a1.146 1.146 0 01-.348-.841c0-.329.116-.609.348-.841.232-.233.513-.349.841-.349z"/></g></svg><svg width="33" height="33" viewBox="-0.5 -0.5 9.47 9.47" id="mobile" x="198" y="165" xmlns="http://www.w3.org/2000/svg"><g data-name="Gruppe 8691" fill="#5f6368"><path data-name="Exclusion 6" d="M5.623 8.467h-.496a.496.496 0 01-.496-.496V5.325a.496.496 0 01.496-.496h.496a.496.496 0 01.496.496V7.97a.496.496 0 01-.496.496zm-2.315 0h-.496a.496.496 0 01-.497-.496V5.986a.496.496 0 01.497-.496h.496a.496.496 0 01.496.496v1.985a.496.496 0 01-.497.496zm-2.316 0H.496A.496.496 0 010 7.97v-.993a.496.496 0 01.496-.496h.496a.496.496 0 01.496.496v.993a.496.496 0 01-.496.496z" opacity=".7"/><path data-name="Cellular-Connection-path" d="M7.442 3.174h.496a.496.496 0 01.496.497v4.3a.496.496 0 01-.496.496h-.496a.496.496 0 01-.496-.496v-4.3a.496.496 0 01.496-.497z" opacity=".7"/></g></svg><svg width="33" height="33" viewBox="-0.5 -0.5 9.47 9.47" id="mobile-1" y="198" xmlns="http://www.w3.org/2000/svg"><g fill="#5f6368" data-name="Gruppe 8691"><path d="M5.592 8.463h-.497a.496.496 0 01-.496-.496V5.32a.496.496 0 01.496-.496h.497a.496.496 0 01.496.496v2.646a.496.496 0 01-.496.496zM3.31 8.463h-.497a.496.496 0 01-.496-.496V5.982a.496.496 0 01.496-.496h.496a.496.496 0 01.496.496v1.985a.496.496 0 01-.496.496z" opacity=".4"/><path d="M.977 8.463H.481a.496.496 0 01-.496-.496v-.993a.496.496 0 01.496-.496h.496a.496.496 0 01.497.496v.993a.496.496 0 01-.497.496z"/><path d="M7.427 3.174h.496a.496.496 0 01.496.496v4.3a.496.496 0 01-.496.496h-.496a.496.496 0 01-.496-.496v-4.3a.496.496 0 01.496-.496z" opacity=".4" data-name="Cellular-Connection-path"/></g></svg><svg width="33" height="33" viewBox="-0.5 -0.5 9.47 9.47" id="mobile-2" x="33" y="198" xmlns="http://www.w3.org/2000/svg"><g fill="#5f6368" data-name="Gruppe 8691"><path d="M5.592 8.463h-.497a.496.496 0 01-.496-.496V5.32a.496.496 0 01.496-.496h.497a.496.496 0 01.496.496v2.646a.496.496 0 01-.496.496z" opacity=".4"/><path d="M3.31 8.463h-.497a.496.496 0 01-.496-.496V5.982a.496.496 0 01.496-.496h.496a.496.496 0 01.496.496v1.985a.496.496 0 01-.496.496zM.977 8.463H.481a.496.496 0 01-.496-.496v-.993a.496.496 0 01.496-.496h.496a.496.496 0 01.497.496v.993a.496.496 0 01-.497.496z"/><path d="M7.427 3.174h.496a.496.496 0 01.496.496v4.3a.496.496 0 01-.496.496h-.496a.496.496 0 01-.496-.496v-4.3a.496.496 0 01.496-.496z" opacity=".4" data-name="Cellular-Connection-path"/></g></svg><svg width="33" height="33" viewBox="-0.5 -0.5 9.47 9.47" id="mobile-3" x="66" y="198" xmlns="http://www.w3.org/2000/svg"><g fill="#5f6368" data-name="Gruppe 8691"><path d="M5.608 8.466h-.496a.496.496 0 01-.496-.496V5.324a.496.496 0 01.496-.496h.496a.496.496 0 01.497.496V7.97a.496.496 0 01-.497.496zm-2.315 0h-.496A.496.496 0 012.3 7.97V5.985a.496.496 0 01.496-.496h.496a.496.496 0 01.496.496V7.97a.496.496 0 01-.497.496zm-2.315 0H.48a.496.496 0 01-.496-.496v-.992a.496.496 0 01.496-.496h.497a.496.496 0 01.496.496v.992a.496.496 0 01-.496.496z" data-name="Exclusion 6"/><path d="M7.427 3.174h.496a.496.496 0 01.496.496v4.3a.496.496 0 01-.496.496h-.496a.496.496 0 01-.496-.496v-4.3a.496.496 0 01.496-.496z" opacity=".4" data-name="Cellular-Connection-path"/></g></svg><svg width="33" height="33" viewBox="-0.5 -0.5 9.47 9.47" id="mobile-4" x="99" y="198" xmlns="http://www.w3.org/2000/svg"><g fill="#5f6368" data-name="Gruppe 8691"><path d="M5.608 8.466h-.496a.496.496 0 01-.496-.496V5.324a.496.496 0 01.496-.496h.496a.496.496 0 01.497.496V7.97a.496.496 0 01-.497.496zm-2.315 0h-.496A.496.496 0 012.3 7.97V5.985a.496.496 0 01.496-.496h.496a.496.496 0 01.496.496V7.97a.496.496 0 01-.497.496zm-2.315 0H.48a.496.496 0 01-.496-.496v-.992a.496.496 0 01.496-.496h.497a.496.496 0 01.496.496v.992a.496.496 0 01-.496.496z" data-name="Exclusion 6"/><path d="M7.427 3.174h.496a.496.496 0 01.496.496v4.3a.496.496 0 01-.496.496h-.496a.496.496 0 01-.496-.496v-4.3a.496.496 0 01.496-.496z" data-name="Cellular-Connection-path"/></g></svg><svg width="33" height="33" viewBox="-0.5 -0.5 9.47 9.47" id="mobile-all" x="132" y="198" xmlns="http://www.w3.org/2000/svg"><g fill="#5f6368" data-name="Gruppe 8694"><path d="M7.438 3.476v4.108H3.33l4.108-4.108m.891-2.143L1.201 8.475h7.128z" opacity=".3" data-name="Pfad 2110"/><path d="M6.547 3.12L1.201 8.475h5.346zM.278 1.315l.575.575a3.649 3.649 0 015.155 0l.575-.575a4.455 4.455 0 00-6.305 0zm2.29 2.29l.86.86.86-.86a1.22 1.22 0 00-1.72 0zM1.423 2.462l.575.574a2.03 2.03 0 012.865 0l.57-.574a2.84 2.84 0 00-4.01 0z" data-name="Pfad 2111"/></g></svg><svg width="33" height="33" viewBox="-0.5 -0.5 9.47 9.47" id="mobile-none" x="165" y="198" xmlns="http://www.w3.org/2000/svg"><g data-name="Gruppe 8694"><g data-name="Gruppe 8696"><g data-name="Gruppe 8695"><path d="M5.533 7.18h-.498a.498.498 0 01-.498-.498V4.027a.498.498 0 01.498-.498h.498a.498.498 0 01.498.498v2.655a.498.498 0 01-.498.499zm-2.324 0h-.498a.498.498 0 01-.498-.498V4.69a.498.498 0 01.498-.498h.498a.498.498 0 01.498.498v1.992a.498.498 0 01-.499.499zm-2.324 0H.387a.498.498 0 01-.498-.498v-.996a.498.498 0 01.498-.498h.498a.498.498 0 01.498.498v.996a.498.498 0 01-.498.499z" fill="#5f6368" data-name="Exclusion 6"/><path d="M7.359 1.868h.498a.498.498 0 01.498.498v4.316a.498.498 0 01-.498.499h-.498a.498.498 0 01-.498-.499V2.366a.498.498 0 01.498-.498z" fill="#5f6368" opacity=".4" data-name="Cellular-Connection-path"/><path fill="none" stroke="#fff" stroke-linecap="round" stroke-width="1.4940600000000002" data-name="Linie 128" d="M1.482 2.311l5.321 5.321"/><path fill="none" stroke="#5f6368" stroke-linecap="round" stroke-width=".99604" data-name="Linie 129" d="M1.184 2.64l5.32 5.32"/></g></g></g></svg><svg width="33" height="33" viewBox="-0.5 -0.5 9.47 9.47" id="neutral" x="198" y="198" xmlns="http://www.w3.org/2000/svg"><g data-name="Gruppe 112"><circle transform="translate(.542 .538) scale(.52917)" cx="7" cy="7" r="7" fill="#5f6368" opacity=".1" data-name="Ellipse 18"/></g></svg><svg width="33" height="33" viewBox="-0.5 -0.5 9.47 9.47" id="operator" x="231" xmlns="http://www.w3.org/2000/svg"><g data-name="Gruppe 8694"><path d="M4.266 2.549V.855H.033v7.62h8.466V2.55zm-2.54 5.08H.879v-.847h.847zm0-1.694H.879V5.09h.847zm0-1.693H.879v-.847h.847zm0-1.693H.879v-.847h.847zm1.693 5.08h-.846v-.847h.846zm0-1.694h-.846V5.09h.846zm0-1.693h-.846v-.847h.846zm0-1.693h-.846v-.847h.846zm4.234 5.08H4.266v-.847h.847v-.847h-.847V5.09h.847v-.847h-.847v-.847h3.387zm-.847-3.387h-.847v.847h.847zm0 1.693h-.847v.847h.847z" fill="#5f6368" data-name="Pfad 2115"/></g></svg><svg width="33" height="33" viewBox="-0.5 -0.5 9.47 9.47" id="ping-0" x="231" y="33" xmlns="http://www.w3.org/2000/svg"><g transform="translate(0 -288.53)"><circle transform="scale(-1)" cx="-4.233" cy="-292.77" fill="#5f6368" opacity=".1" data-name="Ellipse 18" r="3.704"/><g data-name="Gruppe 97"><path d="M8.467 296.995H.001v-8.467h8.466z" fill="none" data-name="Pfad 2095"/><g fill="#5f6368" opacity=".944" data-name="Gruppe 103"><path d="M4.348 290.309l.549.548-.769.787H5.74v.772H2.646v-.384z" opacity=".6" data-name="Pfad 2125"/><path d="M4.014 295.507l-.549-.549.769-.786h-1.61v-.773h3.092v.387z" opacity=".6" data-name="Pfad 2127"/></g></g></g></svg><svg width="33" height="33" viewBox="-0.5 -0.5 9.47 9.47" id="ping-1" x="231" y="66" xmlns="http://www.w3.org/2000/svg"><g transform="matrix(-.52916 0 0 -.52917 2040.5 66.68)" data-name="Gruppe 114"><circle transform="translate(3841 111)" cx="7" cy="7" r="7" fill="#f5001c" opacity=".1" data-name="Ellipse 18"/><g data-name="Gruppe 97"><path d="M3840 110h16v16h-16z" fill="none" data-name="Pfad 2095"/><g fill="#f5001c" data-name="Gruppe 103"><path d="M3847.784 122.636l-1.037-1.036 1.453-1.487h-3.045v-1.46H3851v.727z" data-name="Pfad 2125"/><path d="M3848.416 112.812l1.037 1.037-1.453 1.486h3.042v1.46h-5.842v-.73z" data-name="Pfad 2127"/></g></g></g></svg><svg width="33" height="33" viewBox="-0.5 -0.5 9.47 9.47" id="ping-2" x="231" y="99" xmlns="http://www.w3.org/2000/svg"><g transform="matrix(-.52916 0 0 -.52917 2040.5 66.68)" data-name="Gruppe 114"><circle transform="translate(3841 111)" cx="7" cy="7" r="7" fill="#ffba00" opacity=".1" data-name="Ellipse 18"/><g data-name="Gruppe 97"><path d="M3840 110h16v16h-16z" fill="none" data-name="Pfad 2095"/><g fill="#ffba00" data-name="Gruppe 103"><path d="M3847.784 122.636l-1.037-1.036 1.453-1.487h-3.045v-1.46H3851v.727z" data-name="Pfad 2125"/><path d="M3848.416 112.812l1.037 1.037-1.453 1.486h3.042v1.46h-5.842v-.73z" data-name="Pfad 2127"/></g></g></g></svg><svg width="33" height="33" viewBox="-0.5 -0.5 9.47 9.47" id="ping-3" x="231" y="132" xmlns="http://www.w3.org/2000/svg"><g transform="matrix(-.52916 0 0 -.52917 2040.5 66.68)" data-name="Gruppe 114"><circle transform="translate(3841 111)" cx="7" cy="7" r="7" fill="#59b200" opacity=".1" data-name="Ellipse 18"/><g data-name="Gruppe 97"><path d="M3840 110h16v16h-16z" fill="none" data-name="Pfad 2095"/><g fill="#59b200" data-name="Gruppe 103"><path d="M3847.784 122.636l-1.037-1.036 1.453-1.487h-3.045v-1.46H3851v.727z" data-name="Pfad 2125"/><path d="M3848.416 112.812l1.037 1.037-1.453 1.486h3.042v1.46h-5.842v-.73z" data-name="Pfad 2127"/></g></g></g></svg><svg width="33" height="33" viewBox="-0.5 -0.5 9.47 9.47" id="ping-4" x="231" y="165" xmlns="http://www.w3.org/2000/svg"><g transform="matrix(2 0 0 2 -180.22 -130.78)"><circle transform="scale(-1)" cx="-92.228" cy="-67.506" r="1.852" fill="#007c0e" opacity=".1" data-name="Ellipse 18"/><path d="M94.345 69.623h-4.233V65.39h4.233z" fill="none" data-name="Pfad 2095"/><g fill="#007c0e" data-name="Gruppe 103"><path d="M92.283 66.28l.274.273-.384.394h.806v.386h-1.547v-.192z" data-name="Pfad 2125"/><path d="M92.116 68.878l-.275-.274.385-.393h-.805v-.386h1.546v.193z" data-name="Pfad 2127"/></g></g></svg><svg width="33" height="33" viewBox="-0.5 -0.5 9.47 9.47" id="qoe" x="231" y="198" xmlns="http://www.w3.org/2000/svg"><path d="M5.61 1.764a.172.172 0 00-.145.081l-.025.053-1.828 4.11a.695.695 0 00-.091.339.708.708 0 001.4.148l.004-.01.86-4.545a.176.176 0 00-.176-.176zM.352 3.175l.705.706a4.467 4.467 0 013.715-1.278l.42-.945a5.476 5.476 0 00-4.84 1.517zm7.055.706l.706-.706a5.421 5.421 0 00-1.972-1.26l-.187.995a4.451 4.451 0 011.453.97zm-1.41 1.41l.705-.705a3.485 3.485 0 00-.939-.667L5.57 4.95a2.558 2.558 0 01.427.343zm-4.234-.705l.705.706a2.505 2.505 0 011.422-.706l.452-1.016a3.485 3.485 0 00-2.58 1.016z" fill="#5f6368" data-name="Pfad 2143"/></svg><svg width="33" height="33" viewBox="-0.5 -0.5 9.47 9.47" id="qoe_gaming" y="231" xmlns="http://www.w3.org/2000/svg"><path d="M2.47 2.117h3.527A2.117 2.117 0 114.42 5.644h-.374A2.117 2.117 0 112.47 2.117m-.353 1.058v.706H1.41v.705h.706v.706h.705v-.706h.706v-.705h-.706v-.706h-.705m3.351 1.058a.53.53 0 10.53.53.53.53 0 00-.53-.53m1.058-1.058a.53.53 0 10.53.53.53.53 0 00-.53-.53z" fill="#5f6368"/></svg><svg width="33" height="33" viewBox="-0.5 -0.5 9.47 9.47" id="qoe_music" x="33" y="231" xmlns="http://www.w3.org/2000/svg"><path d="M4.233 1.058l.004 3.722a1.41 1.41 0 10.702 1.217V2.47H6.35V1.06zm-.702 5.645a.706.706 0 11.706-.706.708.708 0 01-.706.706z" fill="#5f6368" data-name="Pfad 4601"/></svg><svg width="33" height="33" viewBox="-0.5 -0.5 9.47 9.47" id="qoe_photo" x="66" y="231" xmlns="http://www.w3.org/2000/svg"><path d="M6.703 1.764v4.939h-4.94v-4.94h4.94m0-.705h-4.94a.708.708 0 00-.705.706v4.939a.708.708 0 00.706.705h4.939a.708.708 0 00.705-.705v-4.94a.708.708 0 00-.705-.705zM4.988 4.184L3.93 5.549l-.755-.913-1.058 1.361H6.35z" fill="#5f6368" data-name="Pfad 2137"/></svg><svg width="33" height="33" viewBox="-0.5 -0.5 9.47 9.47" id="qoe_video" x="99" y="231" xmlns="http://www.w3.org/2000/svg"><g data-name="Gruppe 127"><path fill="none" data-name="Rechteck 438" d="M.022.005H8.49V8.47H.022z"/><g data-name="Gruppe 127"><g transform="translate(.375 1.063) scale(.35278)" fill="none" stroke="#5f6368" stroke-width="2" data-name="Rechteck 437"><rect width="22" height="16" rx="2" stroke="none"/><rect x="1" y="1" width="20" height="14" rx="1"/></g><path d="M3.197 2.474v2.822l2.47-1.41z" fill="#5f6368" data-name="Pfad 2135"/><path fill="none" stroke="#5f6368" stroke-linecap="round" data-name="Linie 20" d="M1.963 7.237h4.586" stroke-width=".35278"/></g></g></svg><svg width="33" height="33" viewBox="-0.5 -0.5 9.47 9.47" id="qoe_voip" x="132" y="231" xmlns="http://www.w3.org/2000/svg"><path d="M4.586 5.644v.706h.353a.353.353 0 01.353.353h2.47v.705h-2.47a.353.353 0 01-.353.353H3.528a.353.353 0 01-.353-.353H.705v-.705h2.47a.353.353 0 01.353-.353h.353v-.706h.705m3.775-3.291a.346.346 0 01.106.247.353.353 0 01-.103.25l-.874.875a.356.356 0 01-.258.103.342.342 0 01-.24-.1 4.321 4.321 0 00-.942-.652.356.356 0 01-.197-.317V1.665a5.256 5.256 0 00-1.62-.254 5.16 5.16 0 00-1.622.258v1.093a.353.353 0 01-.198.318 4.028 4.028 0 00-.938.652.358.358 0 01-.498-.003l-.875-.875a.358.358 0 010-.501 5.997 5.997 0 018.259 0m-4.48.822v1.764h-.353V3.175h.353m.352 0h1.059v1.058h-.706v.706h-.353V3.175m.706.706v-.353h-.353v.353z" fill="#5f6368"/></svg><svg width="33" height="33" viewBox="-0.5 -0.5 9.47 9.47" id="statistics" x="165" y="231" xmlns="http://www.w3.org/2000/svg"><g data-name="Gruppe 8694"><path d="M.052 2.548h1.814v5.927H.052zM3.438.008h1.694v8.467H3.438zm3.387 4.838h1.693v3.629H6.825z" fill="#5f6368" data-name="Pfad 2104"/></g></svg><svg width="33" height="33" viewBox="-0.5 -0.5 9.47 9.47" id="statistics-alt" x="198" y="231" xmlns="http://www.w3.org/2000/svg"><g data-name="Gruppe 8694"><path d="M7.557.01H.972a.944.944 0 00-.94.94v6.585a.944.944 0 00.94.94h6.585a.944.944 0 00.941-.94V.95a.944.944 0 00-.94-.94zm0 7.525H.972V.95h6.585zM1.913 3.302h.94v3.292h-.94zM3.794 1.89h.941v4.703h-.94zm1.882 2.822h.94v1.881h-.94z" fill="#5f6368" data-name="Pfad 2083"/></g></svg><svg width="33" height="33" viewBox="-0.5 -0.5 9.47 9.47" id="traffic-light-green" x="231" y="231" xmlns="http://www.w3.org/2000/svg"><g fill="#0f0" paint-order="markers fill stroke"><rect x=".529" y="4.763" width="3.175" height="3.175" ry="0"/><rect x=".529" y=".529" width="3.175" height="3.175" ry="0"/><rect x="4.763" y=".529" width="3.175" height="3.175" ry="0"/><rect x="4.763" y="4.763" width="3.175" height="3.175" ry="0"/></g></svg><svg width="33" height="33" viewBox="-0.5 -0.5 9.47 9.47" id="traffic-light-red" x="264" xmlns="http://www.w3.org/2000/svg"><g fill="red" paint-order="markers fill stroke"><rect x=".529" y="4.763" width="3.175" height="3.175" ry="0"/><rect x=".529" y=".529" width="3.175" height="3.175" ry="0"/><rect x="4.763" y=".529" width="3.175" height="3.175" ry="0"/><rect x="4.763" y="4.763" width="3.175" height="3.175" ry="0"/></g></svg><svg width="33" height="33" viewBox="-0.5 -0.5 9.47 9.47" id="traffic-light-ultra-green" x="264" y="33" xmlns="http://www.w3.org/2000/svg"><g fill="#090" paint-order="markers fill stroke"><rect x=".529" y="4.763" width="3.175" height="3.175" ry="0"/><rect x=".529" y=".529" width="3.175" height="3.175" ry="0"/><rect x="4.763" y=".529" width="3.175" height="3.175" ry="0"/><rect x="4.763" y="4.763" width="3.175" height="3.175" ry="0"/></g></svg><svg width="33" height="33" viewBox="-0.5 -0.5 9.47 9.47" id="traffic-light-yellow" x="264" y="66" xmlns="http://www.w3.org/2000/svg"><g fill="#ff0" paint-order="markers fill stroke"><rect x=".529" y="4.763" width="3.175" height="3.175" ry="0"/><rect x=".529" y=".529" width="3.175" height="3.175" ry="0"/><rect x="4.763" y=".529" width="3.175" height="3.175" ry="0"/><rect x="4.763" y="4.763" width="3.175" height="3.175" ry="0"/></g></svg><svg width="33" height="33" viewBox="-0.5 -0.5 9.47 9.47" id="up-0" x="264" y="99" xmlns="http://www.w3.org/2000/svg"><g transform="translate(0 -288.53)"><circle transform="scale(-1)" cx="-4.233" cy="-292.77" r="3.704" fill="#5f6368" opacity=".1" data-name="Ellipse 18"/><g data-name="Gruppe 97"><path d="M8.467 296.995H0v-8.467h8.467z" fill="none" data-name="Pfad 2095"/><path d="M3.466 294.35h1.535v-1.588H6.35l-2.117-2.117-2.116 2.117h1.349z" fill="#5f6368" opacity=".6" data-name="Pfad 2096"/></g></g></svg><svg width="33" height="33" viewBox="-0.5 -0.5 9.47 9.47" id="up-1" x="264" y="132" xmlns="http://www.w3.org/2000/svg"><g transform="rotate(180 1020.25 33.34) scale(.52917)" data-name="Gruppe 113"><circle transform="translate(3841 111)" cx="7" cy="7" r="7" fill="#f5001c" opacity=".1" data-name="Ellipse 18"/><g data-name="Gruppe 97"><path d="M3840 110h16v16h-16z" fill="none" data-name="Pfad 2095"/><path d="M3849.45 115h-2.9v3H3844l4 4 4-4h-2.55z" fill="#f5001c" data-name="Pfad 2096"/></g></g></svg><svg width="33" height="33" viewBox="-0.5 -0.5 9.47 9.47" id="up-2" x="264" y="165" xmlns="http://www.w3.org/2000/svg"><g transform="rotate(180 1020.25 33.34) scale(.52917)" data-name="Gruppe 113"><circle transform="translate(3841 111)" cx="7" cy="7" r="7" fill="#ffba00" opacity=".1" data-name="Ellipse 18"/><g data-name="Gruppe 97"><path d="M3840 110h16v16h-16z" fill="none" data-name="Pfad 2095"/><path d="M3849.45 115h-2.9v3H3844l4 4 4-4h-2.55z" fill="#ffba00" data-name="Pfad 2096"/></g></g></svg><svg width="33" height="33" viewBox="-0.5 -0.5 9.47 9.47" id="up-3" x="264" y="198" xmlns="http://www.w3.org/2000/svg"><g transform="rotate(180 1020.25 33.34) scale(.52917)" data-name="Gruppe 113"><circle transform="translate(3841 111)" cx="7" cy="7" r="7" fill="#59b200" opacity=".1" data-name="Ellipse 18"/><g data-name="Gruppe 97"><path d="M3840 110h16v16h-16z" fill="none" data-name="Pfad 2095"/><path d="M3849.45 115h-2.9v3H3844l4 4 4-4h-2.55z" fill="#59b200" data-name="Pfad 2096"/></g></g></svg><svg width="33" height="33" viewBox="-0.5 -0.5 9.47 9.47" id="up-4" x="264" y="231" xmlns="http://www.w3.org/2000/svg"><g transform="rotate(180 1020.25 33.34) scale(.52917)" data-name="Gruppe 113"><circle transform="translate(3841 111)" cx="7" cy="7" r="7" fill="#007c0e" opacity=".1" data-name="Ellipse 18"/><g data-name="Gruppe 97"><path d="M3840 110h16v16h-16z" fill="none" data-name="Pfad 2095"/><path d="M3849.45 115h-2.9v3H3844l4 4 4-4h-2.55z" fill="#007c0e" data-name="Pfad 2096"/></g></g></svg><svg width="33" height="33" viewBox="-0.5 -0.5 9.47 9.47" id="wlan-none" y="264" xmlns="http://www.w3.org/2000/svg"><g data-name="Gruppe 8694"><path d="M4.267 8.475a.174.174 0 01-.124-.052L3.036 7.306a.174.174 0 01.008-.254 1.897 1.897 0 012.45 0 .174.174 0 01.005.253L4.39 8.423a.171.171 0 01-.123.052zM6.21 6.513a.171.171 0 01-.118-.047 2.72 2.72 0 00-3.652 0 .172.172 0 01-.24-.003l-.64-.647a.179.179 0 01.003-.255 3.97 3.97 0 015.407 0 .181.181 0 01.055.127.179.179 0 01-.052.128l-.64.647a.172.172 0 01-.122.05z" fill="#5f6368" data-name="Wifi"/><path d="M4.267 3.657a4.791 4.791 0 013.3 1.318.17.17 0 00.24 0l.642-.648a.178.178 0 000-.252 6.042 6.042 0 00-8.362 0 .178.178 0 000 .252l.639.647a.17.17 0 00.24 0 4.791 4.791 0 013.3-1.317z" fill="#5f6368" opacity=".4" data-name="Wifi-path"/><path fill="none" stroke="#fff" stroke-linecap="round" stroke-width="1.4113499999999999" data-name="Linie 126" d="M1.162 1.736L7.036 7.61"/><path fill="none" stroke="#5f6368" stroke-linecap="round" stroke-width=".9409" data-name="Linie 127" d="M.785 2.103L6.66 7.977"/></g></svg><svg width="33" height="33" viewBox="-0.5 -0.5 9.47 9.47" id="wlan3" x="33" y="264" xmlns="http://www.w3.org/2000/svg"><g fill="#5f6368" stroke-width=".265"><path d="M4.018 4.51a3.95 3.95 0 00-2.496 1.054.178.178 0 00-.002.253l.636.643a.17.17 0 00.239.004 2.705 2.705 0 013.633 0 .17.17 0 00.118.047.17.17 0 00.122-.05l.636-.644a.178.178 0 00.052-.127.18.18 0 00-.054-.126A3.95 3.95 0 004.018 4.51z" opacity=".7"/><path d="M4.211 3.67a4.767 4.767 0 013.284 1.31.17.17 0 00.24 0l.637-.643a.177.177 0 000-.252 6.012 6.012 0 00-8.319 0 .177.177 0 000 .252l.635.643a.17.17 0 00.24 0A4.767 4.767 0 014.21 3.67z" opacity=".7" data-name="Wifi-path"/><path d="M4.19 6.603a1.887 1.887 0 00-1.198.446.173.173 0 00-.007.252l1.102 1.112a.173.173 0 00.122.052.17.17 0 00.123-.052l1.103-1.112a.173.173 0 00-.005-.252 1.887 1.887 0 00-1.203-.446z" opacity=".7"/></g></svg><svg width="33" height="33" viewBox="-0.5 -0.5 9.47 9.47" id="wlan3-0" x="66" y="264" xmlns="http://www.w3.org/2000/svg"><g fill="#5f6368" opacity=".2" stroke-width=".265" data-name="Gruppe 8691"><path d="M4.003 4.511a3.95 3.95 0 00-2.497 1.053.178.178 0 00-.002.254l.637.643a.17.17 0 00.238.004 2.705 2.705 0 013.633 0 .17.17 0 00.118.047.17.17 0 00.122-.05l.637-.644a.178.178 0 00.052-.127.18.18 0 00-.055-.127 3.95 3.95 0 00-2.883-1.053z" opacity=".7"/><path d="M4.196 3.671a4.767 4.767 0 013.284 1.31.17.17 0 00.239 0l.638-.643a.177.177 0 000-.252 6.012 6.012 0 00-8.32 0 .177.177 0 000 .252l.636.643a.17.17 0 00.239 0 4.767 4.767 0 013.284-1.31z" opacity=".7" data-name="Wifi-path"/><path d="M4.174 6.604a1.887 1.887 0 00-1.197.445.173.173 0 00-.007.253L4.07 8.414a.173.173 0 00.123.051.17.17 0 00.122-.05L5.42 7.301a.173.173 0 00-.006-.253 1.887 1.887 0 00-1.203-.445z" opacity=".7"/></g></svg><svg width="33" height="33" viewBox="-0.5 -0.5 9.47 9.47" id="wlan3-1" x="99" y="264" xmlns="http://www.w3.org/2000/svg"><g fill="#5f6368" stroke-width=".265"><path d="M4.011 4.512a3.95 3.95 0 00-2.496 1.053.178.178 0 00-.002.253l.636.644a.17.17 0 00.238.003 2.705 2.705 0 013.633 0 .17.17 0 00.118.047.17.17 0 00.123-.05l.636-.644a.178.178 0 00.052-.127.18.18 0 00-.055-.126 3.95 3.95 0 00-2.883-1.053z" opacity=".4"/><path d="M4.204 3.671a4.767 4.767 0 013.284 1.311.17.17 0 00.239 0l.638-.644a.177.177 0 000-.251 6.012 6.012 0 00-8.32 0 .177.177 0 000 .251l.636.644a.17.17 0 00.24 0 4.767 4.767 0 013.283-1.31z" opacity=".4" data-name="Wifi-path"/><path d="M4.183 6.604a1.887 1.887 0 00-1.198.446.173.173 0 00-.007.252L4.08 8.414a.173.173 0 00.122.052.17.17 0 00.122-.052l1.104-1.112a.173.173 0 00-.006-.252 1.887 1.887 0 00-1.203-.446z"/></g></svg><svg width="33" height="33" viewBox="-0.5 -0.5 9.47 9.47" id="wlan3-2" x="132" y="264" xmlns="http://www.w3.org/2000/svg"><g fill="#5f6368" stroke-width=".265"><path d="M4.012 4.51a3.95 3.95 0 00-2.497 1.054.178.178 0 00-.002.253l.636.643a.17.17 0 00.24.004 2.705 2.705 0 013.632 0 .17.17 0 00.118.047.17.17 0 00.122-.05l.637-.644a.178.178 0 00.052-.127.18.18 0 00-.055-.126A3.95 3.95 0 004.012 4.51z"/><path d="M4.205 3.67a4.767 4.767 0 013.283 1.31.17.17 0 00.24 0l.637-.643a.177.177 0 000-.252 6.012 6.012 0 00-8.319 0 .177.177 0 000 .252l.636.643a.17.17 0 00.239 0 4.767 4.767 0 013.284-1.31z" opacity=".4" data-name="Wifi-path"/><path d="M4.183 6.603a1.887 1.887 0 00-1.197.445.173.173 0 00-.007.253L4.08 8.413a.173.173 0 00.123.051.17.17 0 00.122-.05L5.428 7.3a.173.173 0 00-.005-.253 1.887 1.887 0 00-1.203-.445z"/></g></svg><svg width="33" height="33" viewBox="-0.5 -0.5 9.47 9.47" id="wlan3-3" x="165" y="264" xmlns="http://www.w3.org/2000/svg"><g fill="#5f6368" stroke-width=".265"><path d="M4.013 4.51a3.95 3.95 0 00-2.497 1.053.178.178 0 00-.002.254l.636.643a.17.17 0 00.239.004 2.705 2.705 0 013.633 0 .17.17 0 00.118.046.17.17 0 00.122-.05l.637-.643a.178.178 0 00.052-.128.18.18 0 00-.055-.126A3.95 3.95 0 004.012 4.51z"/><path d="M4.206 3.67a4.767 4.767 0 013.283 1.31.17.17 0 00.24 0l.637-.643a.177.177 0 000-.252 6.012 6.012 0 00-8.319 0 .177.177 0 000 .252l.635.643a.17.17 0 00.24 0 4.767 4.767 0 013.283-1.31z" data-name="Wifi-path"/><path d="M4.184 6.603a1.887 1.887 0 00-1.197.445.173.173 0 00-.008.253l1.102 1.112a.173.173 0 00.123.051.17.17 0 00.122-.05L5.429 7.3a.173.173 0 00-.005-.253 1.887 1.887 0 00-1.203-.445z"/></g></svg><svg width="33" height="33" viewBox="-0.5 -0.5 9.47 9.47" id="wlan4" x="198" y="264" xmlns="http://www.w3.org/2000/svg"><g fill="#5f6368" stroke-width="13.441"><path d="M4.223 6.476a1.995 1.995 0 011.346.52.126.126 0 00.178 0l.471-.477a.133.133 0 000-.183 2.92 2.92 0 00-3.984 0 .128.128 0 00-.007.183l.472.478a.126.126 0 00.178 0 1.995 1.995 0 011.346-.52z" opacity=".7"/><path d="M5.129 7.609a.133.133 0 000-.184l-.007-.006a1.398 1.398 0 00-1.805 0 .128.128 0 00-.006.183l.006.007.814.82a.126.126 0 00.178 0zM4.223 4.922a3.52 3.52 0 012.43.973.126.126 0 00.178 0l.471-.477a.133.133 0 000-.184 4.455 4.455 0 00-6.157 0 .128.128 0 000 .184l.471.477a.126.126 0 00.178 0 3.52 3.52 0 012.428-.973z" opacity=".7"/><path d="M.514 4.824a.119.119 0 00.171 0 5.085 5.085 0 017.076 0 .119.119 0 00.17 0l.478-.478a.119.119 0 000-.17 6.001 6.001 0 00-8.373-.001.119.119 0 000 .171z" opacity=".7" data-name="Pfad 5806"/></g></svg><svg width="33" height="33" viewBox="-0.5 -0.5 9.47 9.47" id="wlan4-0" x="231" y="264" xmlns="http://www.w3.org/2000/svg"><g fill="#5f6368" stroke-width=".149" data-name="Gruppe 8691"><path d="M4.202 6.473a1.995 1.995 0 011.347.52.126.126 0 00.178 0l.47-.477a.133.133 0 000-.184 2.92 2.92 0 00-3.984 0 .128.128 0 00-.006.184l.471.477a.126.126 0 00.178 0 1.995 1.995 0 011.346-.52z" opacity=".2"/><path d="M5.095 7.61a.133.133 0 000-.184l-.006-.007a1.398 1.398 0 00-1.806 0 .128.128 0 00-.006.184l.007.006.814.82a.126.126 0 00.178 0zM4.202 4.92a3.52 3.52 0 012.43.973.126.126 0 00.178 0l.472-.477a.133.133 0 000-.183 4.455 4.455 0 00-6.157 0 .128.128 0 000 .183l.47.477a.126.126 0 00.179 0 3.52 3.52 0 012.428-.973z" opacity=".2"/><path d="M.481 4.821a.119.119 0 00.172 0 5.085 5.085 0 017.076 0 .119.119 0 00.17 0l.478-.477a.119.119 0 000-.172 6.001 6.001 0 00-8.372 0 .119.119 0 000 .172z" opacity=".2" data-name="Pfad 5806"/></g></svg><svg width="33" height="33" viewBox="-0.5 -0.5 9.47 9.47" id="wlan4-1" x="264" y="264" xmlns="http://www.w3.org/2000/svg"><g fill="#5f6368" stroke-width=".042"><path d="M4.225 6.486a1.995 1.995 0 011.347.52.126.126 0 00.177 0l.472-.477a.133.133 0 000-.184 2.92 2.92 0 00-3.985 0 .128.128 0 00-.006.184l.471.477a.126.126 0 00.178 0 1.995 1.995 0 011.346-.52z" opacity=".4"/><path d="M5.131 7.618a.133.133 0 000-.184l-.006-.006a1.398 1.398 0 00-1.806 0 .128.128 0 00-.006.183l.006.007.814.82a.126.126 0 00.178 0z"/><path d="M4.225 4.93a3.52 3.52 0 012.43.973.126.126 0 00.178 0l.472-.477a.133.133 0 000-.184 4.455 4.455 0 00-6.157 0 .128.128 0 000 .184l.47.477a.126.126 0 00.179 0 3.52 3.52 0 012.428-.973z" opacity=".4"/><path d="M.516 4.834a.119.119 0 00.172 0 5.085 5.085 0 017.076 0 .119.119 0 00.171 0l.477-.478a.119.119 0 000-.17A6.001 6.001 0 00.04 4.184a.119.119 0 000 .171z" opacity=".4" data-name="Pfad 5806"/></g></svg><svg width="33" height="33" viewBox="-0.5 -0.5 9.47 9.47" id="wlan4-2" x="297" xmlns="http://www.w3.org/2000/svg"><g fill="#5f6368" stroke-width=".042"><path d="M4.228 6.482a1.995 1.995 0 011.346.52.126.126 0 00.178 0l.471-.477a.133.133 0 000-.184 2.92 2.92 0 00-3.984 0 .128.128 0 00-.007.184l.472.477a.126.126 0 00.177 0 1.995 1.995 0 011.346-.52z"/><path d="M5.133 7.614a.133.133 0 000-.184l-.006-.006a1.398 1.398 0 00-1.806 0 .128.128 0 00-.006.183l.007.007.814.82a.126.126 0 00.178 0z"/><path d="M4.228 4.928a3.52 3.52 0 012.43.973.126.126 0 00.178 0l.47-.477a.133.133 0 000-.184 4.455 4.455 0 00-6.156 0 .128.128 0 000 .184l.471.477a.126.126 0 00.178 0 3.52 3.52 0 012.429-.973z" opacity=".4"/><path d="M.519 4.83a.119.119 0 00.171 0 5.085 5.085 0 017.076 0 .119.119 0 00.171 0l.478-.478a.119.119 0 000-.171 6.001 6.001 0 00-8.373 0 .119.119 0 000 .171z" opacity=".4" data-name="Pfad 5806"/></g></svg><svg width="33" height="33" viewBox="-0.5 -0.5 9.47 9.47" id="wlan4-3" x="297" y="33" xmlns="http://www.w3.org/2000/svg"><g fill="#5f6368" stroke-width=".042"><path d="M4.228 6.483a1.995 1.995 0 011.346.52.126.126 0 00.178 0l.471-.478a.133.133 0 000-.183 2.92 2.92 0 00-3.984 0 .128.128 0 00-.007.183l.472.478a.126.126 0 00.177 0 1.995 1.995 0 011.346-.52z"/><path d="M5.133 7.614a.133.133 0 000-.183l-.006-.007a1.398 1.398 0 00-1.806 0 .128.128 0 00-.006.184l.007.006.814.82a.126.126 0 00.178 0zM4.228 4.927a3.52 3.52 0 012.43.973.126.126 0 00.178 0l.471-.477a.133.133 0 000-.184 4.455 4.455 0 00-6.157 0 .128.128 0 000 .184l.471.477a.126.126 0 00.178 0 3.52 3.52 0 012.429-.973z"/><path d="M.519 4.829a.119.119 0 00.171 0 5.085 5.085 0 017.076 0 .119.119 0 00.171 0l.478-.478a.119.119 0 000-.17A6.001 6.001 0 00.042 4.18a.119.119 0 000 .171z" opacity=".4" data-name="Pfad 5806"/></g></svg><svg width="33" height="33" viewBox="-0.5 -0.5 9.47 9.47" id="wlan4-4" x="297" y="66" xmlns="http://www.w3.org/2000/svg"><g fill="#5f6368" stroke-width=".042"><path d="M4.224 6.48a1.995 1.995 0 011.347.521.126.126 0 00.177 0l.472-.477a.133.133 0 000-.184 2.92 2.92 0 00-3.985 0 .128.128 0 00-.006.184L2.7 7a.126.126 0 00.178 0 1.995 1.995 0 011.346-.52z"/><path d="M5.132 7.614a.133.133 0 000-.183l-.007-.007a1.398 1.398 0 00-1.805 0 .128.128 0 00-.006.184l.006.006.814.82a.126.126 0 00.178 0zM4.224 4.927a3.52 3.52 0 012.43.973.126.126 0 00.178 0l.471-.477a.133.133 0 000-.184 4.455 4.455 0 00-6.156 0 .128.128 0 000 .184l.47.477a.126.126 0 00.179 0 3.52 3.52 0 012.428-.973z"/><path d="M.515 4.829a.119.119 0 00.172 0 5.085 5.085 0 017.075 0 .119.119 0 00.172 0l.477-.478a.119.119 0 000-.17A6.001 6.001 0 00.038 4.18a.119.119 0 000 .171z" data-name="Pfad 5806"/></g></svg></svg>