<svg width="39" height="39" viewBox="0 0 39 39" fill="none" xmlns="http://www.w3.org/2000/svg">
<g id="info-circle 1" clip-path="url(#clip0_89_181)">
<path id="Vector" d="M19.5 36.5625C14.9747 36.5625 10.6348 34.7648 7.43499 31.565C4.23515 28.3652 2.4375 24.0253 2.4375 19.5C2.4375 14.9747 4.23515 10.6348 7.43499 7.43499C10.6348 4.23515 14.9747 2.4375 19.5 2.4375C24.0253 2.4375 28.3652 4.23515 31.565 7.43499C34.7648 10.6348 36.5625 14.9747 36.5625 19.5C36.5625 24.0253 34.7648 28.3652 31.565 31.565C28.3652 34.7648 24.0253 36.5625 19.5 36.5625ZM19.5 39C24.6717 39 29.6316 36.9455 33.2886 33.2886C36.9455 29.6316 39 24.6717 39 19.5C39 14.3283 36.9455 9.36838 33.2886 5.71142C29.6316 2.05446 24.6717 0 19.5 0C14.3283 0 9.36838 2.05446 5.71142 5.71142C2.05446 9.36838 0 14.3283 0 19.5C0 24.6717 2.05446 29.6316 5.71142 33.2886C9.36838 36.9455 14.3283 39 19.5 39Z" fill="black"/>
<path id="Vector_2" d="M21.7668 16.0582L16.1849 16.7578L15.985 17.6841L17.0819 17.8864C17.7985 18.057 17.9399 18.3154 17.7839 19.0296L15.985 27.4828C15.5121 29.6692 16.2409 30.6979 17.9545 30.6979C19.2829 30.6979 20.8259 30.0836 21.5254 29.2403L21.7399 28.2262C21.2524 28.6553 20.5407 28.8259 20.0678 28.8259C19.3975 28.8259 19.1538 28.3554 19.3268 27.5267L21.7668 16.0582ZM21.9374 10.9688C21.9374 11.6152 21.6806 12.2352 21.2235 12.6923C20.7663 13.1494 20.1463 13.4062 19.4999 13.4062C18.8534 13.4062 18.2334 13.1494 17.7763 12.6923C17.3192 12.2352 17.0624 11.6152 17.0624 10.9688C17.0624 10.3223 17.3192 9.7023 17.7763 9.24518C18.2334 8.78806 18.8534 8.53125 19.4999 8.53125C20.1463 8.53125 20.7663 8.78806 21.2235 9.24518C21.6806 9.7023 21.9374 10.3223 21.9374 10.9688Z" fill="black"/>
</g>
<defs>
<clipPath id="clip0_89_181">
<rect width="39" height="39" fill="white"/>
</clipPath>
</defs>
</svg>
