<?xml version="1.0" encoding="UTF-8"?>
<svg width="142px" height="44px" viewBox="0 0 142 44" version="1.1" xmlns="http://www.w3.org/2000/svg" xmlns:xlink="http://www.w3.org/1999/xlink">
    <title>logo_ONT</title>
    <defs>
        <radialGradient cx="0%" cy="100%" fx="0%" fy="100%" r="141.421356%" id="radialGradient-1">
            <stop stop-color="#0958BD" offset="0%"></stop>
            <stop stop-color="#00ACB1" offset="100%"></stop>
        </radialGradient>
    </defs>
    <g id="ONT-(Design-System)---DS" stroke="none" stroke-width="1" fill="none" fill-rule="evenodd">
        <g id="ONT---DS---Branding" transform="translate(-260.000000, -702.000000)">
            <g id="logo_ONT" transform="translate(260.000000, 702.000000)">
                <path d="M64.8511926,18.0096004 C69.6055475,18.0096004 73.7023852,14.5695643 73.7023852,9.00480018 C73.7023852,3.44003603 69.6055475,1.70530257e-13 64.8511926,1.70530257e-13 C60.1221268,1.70530257e-13 56,3.44003603 56,9.00480018 C56,14.5695643 60.1221268,18.0096004 64.8511926,18.0096004 Z M64.8511926,16.7195869 C60.9060896,16.7195869 57.4414799,13.8360272 57.4414799,8.9795058 C57.4414799,4.07239559 60.8808005,1.21413036 64.8511926,1.21413036 C68.8468738,1.21413036 72.2861944,4.09768997 72.2861944,8.9795058 C72.2861944,13.8360272 68.8468738,16.7195869 64.8511926,16.7195869 Z M78.9569027,22.5120005 L78.9569027,15.5054565 C80.0949132,17.2760633 81.6881279,17.9590116 83.382499,17.9590116 C86.8723979,17.9590116 89.1484188,15.3789846 89.1484188,11.8883598 C89.1484188,8.42302939 86.9482652,5.76711922 83.3319208,5.76711922 C81.5616823,5.76711922 79.9431785,6.57653946 78.9569027,8.24596871 L78.9569027,5.96947428 L77.6418684,5.96947428 L77.6418684,22.5120005 L78.9569027,22.5120005 Z M83.3319208,16.7701756 C80.47425,16.7701756 78.9063245,14.5695643 78.9063245,11.8883598 C78.9063245,9.1312721 80.47425,6.90536643 83.3319208,6.90536643 C86.1643024,6.90536643 87.7575171,9.18186086 87.7575171,11.8883598 C87.7575171,14.6201531 86.1643024,16.7701756 83.3319208,16.7701756 Z M97.4882092,17.9590116 C100.902241,17.9590116 102.36901,16.1884048 102.36901,16.1884048 L101.736782,15.2525127 L101.721612,15.2676491 C101.560108,15.4258098 100.113815,16.7701756 97.6146548,16.7701756 C94.959297,16.7701756 93.3913715,14.9236857 93.2649258,12.1413036 L102.798925,12.1413036 C102.798925,12.1413036 102.874792,11.635416 102.874792,11.2560002 C102.874792,8.09420241 100.649349,5.76711922 97.5640765,5.76711922 C94.4535146,5.76711922 91.8740242,8.22067433 91.8740242,11.837771 C91.8740242,15.4295733 94.0741777,17.9590116 97.4882092,17.9590116 Z M101.534469,11.0030564 L93.3155041,11.0030564 C93.3913715,9.35892154 94.5799602,6.90536643 97.4882092,6.90536643 C100.396458,6.90536643 101.534469,9.48539345 101.534469,11.0030564 Z M107.674105,17.7060678 L107.674105,11.8883598 C107.674105,9.10597771 108.887983,6.90536643 111.416895,6.90536643 C113.945808,6.90536643 114.274566,8.85303389 114.274566,10.7501126 L114.274566,17.7060678 L115.61489,17.7060678 L115.61489,10.6995238 C115.61489,7.91714173 114.830927,5.76711922 111.467474,5.76711922 C109.773103,5.76711922 108.255755,6.75360014 107.674105,8.14479118 L107.674105,5.96947428 L106.359071,5.96947428 L106.359071,17.7060678 L107.674105,17.7060678 Z M59.8945247,43.0004503 L59.8940203,34.0585386 C59.8887494,32.0973461 59.8439465,30.1256096 59.8439465,30.1256096 L68.6951391,43.0004503 L72.0080141,43.0004503 L72.0080141,25.5473264 L68.7962956,25.5473264 L68.7962956,34.1474164 C68.7962956,36.2215558 68.8468738,38.2704008 68.8468738,38.2704008 L60.1727051,25.5473264 L56.6828063,25.5473264 L56.6828063,43.0004503 L59.8945247,43.0004503 Z M81.5869714,43.2786885 C84.5710878,43.2786885 86.4171937,42.0139694 87.0999999,41.3057267 L85.8355439,39.5604143 C85.2538941,40.0663019 83.787125,40.799839 82.1433321,40.799839 C80.2972262,40.799839 78.805168,39.8639469 78.5016986,37.9162794 L87.5046259,37.9162794 C87.5046259,37.9162794 87.5552041,36.9045041 87.5552041,36.2721446 C87.5552041,33.0091692 85.2791832,30.5303197 81.511104,30.5303197 C78.0212052,30.5303197 75.1635345,33.1609355 75.1635345,37.0815648 C75.1635345,41.0274885 77.8947596,43.2786885 81.5869714,43.2786885 Z M84.3181966,35.8168457 L78.4511203,35.8168457 C78.5522768,34.2738883 79.5638417,32.9332861 81.4858149,32.9332861 C83.7618359,32.9332861 84.2676183,34.4762434 84.3181966,35.8168457 Z M94.5040928,43.2786885 C95.8697054,43.2786885 96.830692,42.9245672 96.9824267,42.8739784 L96.8054029,40.3698345 C96.8054029,40.3698345 96.2996205,40.5721896 95.6421033,40.5721896 C94.5040928,40.5721896 94.1753342,40.1168907 94.1753342,38.2451064 L94.1753342,33.2874074 L97.0077159,33.2874074 L97.0077159,30.7832636 L94.1753342,30.7832636 L94.1753342,27.2926388 L90.9636158,27.2926388 L90.9636158,30.7832636 L89.142799,30.7832636 L89.142799,33.2874074 L90.9636158,33.2874074 L90.9636158,38.9533491 C90.9636158,42.1404413 92.0004698,43.2786885 94.5040928,43.2786885 Z M103.400244,43.2786885 C104.765856,43.2786885 105.726843,42.9245672 105.878578,42.8739784 L105.701554,40.3698345 C105.701554,40.3698345 105.195772,40.5721896 104.538254,40.5721896 C103.400244,40.5721896 103.071485,40.1168907 103.071485,38.2451064 L103.071485,33.2874074 L105.903867,33.2874074 L105.903867,30.7832636 L103.071485,30.7832636 L103.071485,27.2926388 L99.8597668,27.2926388 L99.8597668,30.7832636 L98.0389501,30.7832636 L98.0389501,33.2874074 L99.8597668,33.2874074 L99.8597668,38.9533491 C99.8597668,42.1404413 100.896621,43.2786885 103.400244,43.2786885 Z M114.066633,43.2786885 C117.05075,43.2786885 118.896856,42.0139694 119.579662,41.3057267 L118.315206,39.5604143 C117.733556,40.0663019 116.266787,40.799839 114.622994,40.799839 C112.776888,40.799839 111.28483,39.8639469 110.981361,37.9162794 L119.984288,37.9162794 C119.984288,37.9162794 120.034866,36.9045041 120.034866,36.2721446 C120.034866,33.0091692 117.758845,30.5303197 113.990766,30.5303197 C110.500867,30.5303197 107.643197,33.1609355 107.643197,37.0815648 C107.643197,41.0274885 110.374422,43.2786885 114.066633,43.2786885 Z M116.797859,35.8168457 L110.930782,35.8168457 C111.031939,34.2738883 112.043504,32.9332861 113.965477,32.9332861 C116.241498,32.9332861 116.74728,34.4762434 116.797859,35.8168457 Z M126.933177,43.2786885 C129.942582,43.2786885 131.788688,41.5586705 131.788688,39.2315873 C131.788688,37.4609805 130.827701,36.499794 128.121765,35.6144906 L127.261935,35.3362524 C125.896323,34.9062479 125.491697,34.4762434 125.491697,33.9450614 C125.491697,33.3632906 126.022768,32.9585804 127.084911,32.9585804 C128.197633,32.9585804 129.234487,33.4644681 129.942582,33.9956501 L131.333484,31.8456276 C130.321919,31.1120905 129.108041,30.5303197 126.933177,30.5303197 C124.581288,30.5303197 122.558159,31.9720995 122.558159,34.1980052 C122.558159,35.9939064 123.493856,37.0815648 125.314673,37.68863 L126.730864,38.1692233 C128.298789,38.7004053 128.779282,39.0545266 128.779282,39.6868862 C128.779282,40.3951289 128.222922,40.8504278 127.009044,40.8504278 C125.97219,40.8504278 124.733023,40.2939514 123.291543,39.1809986 L121.976509,41.3816098 C122.962784,42.519857 125.061782,43.2786885 126.933177,43.2786885 Z M138.611131,43.2786885 C139.976744,43.2786885 140.93773,42.9245672 141.089465,42.8739784 L140.912441,40.3698345 C140.912441,40.3698345 140.406659,40.5721896 139.749142,40.5721896 C138.611131,40.5721896 138.282372,40.1168907 138.282372,38.2451064 L138.282372,33.2874074 L141.114754,33.2874074 L141.114754,30.7832636 L138.282372,30.7832636 L138.282372,27.2926388 L135.070654,27.2926388 L135.070654,30.7832636 L133.249837,30.7832636 L133.249837,33.2874074 L135.070654,33.2874074 L135.070654,38.9533491 C135.070654,42.1404413 136.107508,43.2786885 138.611131,43.2786885 Z" id="OpenNettest" fill="#000000" fill-rule="nonzero"></path>
                <polygon id="Path-2" fill="url(#radialGradient-1)" points="44 14.1395598 38.1333333 22.5120005 38.1333333 5.86666667 5.86666667 5.86666667 5.86666667 38.1333333 38.1333333 38.1333333 38.1333333 24.2 44 24.2 44 44 0 44 0 1.13686838e-13 44 1.13686838e-13"></polygon>
            </g>
        </g>
    </g>
</svg>