<svg width="34" height="32" viewBox="0 0 34 32" fill="none" xmlns="http://www.w3.org/2000/svg">
<path d="M33.7302 15.9807C33.7541 18.6557 33.145 21.1635 31.903 23.5042C30.6849 25.7733 29.0011 27.6243 26.8517 29.0574C24.6305 30.5382 22.1824 31.386 19.5075 31.601C16.8564 31.8159 14.3247 31.386 11.9124 30.3113C9.54801 29.2365 7.57761 27.6841 6.00117 25.6541C4.37709 23.5523 3.36207 21.1759 2.95611 18.5249L0.125793 18.3816L4.28145 12.0403L7.68507 18.8114L4.99821 18.6323C5.40423 20.6385 6.20433 22.4538 7.39851 24.078C8.59273 25.6782 10.0735 26.9559 11.8409 27.9113C13.6083 28.8666 15.507 29.3921 17.537 29.4876C19.5909 29.5831 21.5375 29.2488 23.3766 28.4845C25.2396 27.7202 26.8517 26.5977 28.2128 25.1169C29.5742 23.6361 30.5535 21.9164 31.1506 19.9579C31.7477 17.9995 31.9029 16.0291 31.6163 14.0467C31.3297 12.0643 30.6251 10.2372 29.5026 8.56531C28.4039 6.86959 26.9828 5.49625 25.2393 4.44529C23.4957 3.39441 21.6208 2.77347 19.6146 2.58247C17.6322 2.36752 15.6857 2.59441 13.7751 3.26314C11.8882 3.90801 10.2163 4.94697 8.75937 6.38002L7.36217 4.94701C8.81909 3.49009 10.491 2.37949 12.3779 1.61521C14.2885 0.850928 16.2589 0.468788 18.2891 0.468788C20.343 0.468788 22.3253 0.874814 24.2361 1.68687C26.1467 2.47503 27.8186 3.59757 29.2518 5.05449C30.6848 6.48753 31.7835 8.15943 32.5478 10.0702C33.3359 11.9571 33.7302 13.9268 33.7302 15.9807ZM13.6332 23.1816L25.4556 15.9807L13.6332 8.77984V23.1816Z" fill="black"/>
</svg>
