<svg width="30" height="30" viewBox="0 0 30 30" fill="none" xmlns="http://www.w3.org/2000/svg">
<path d="M10.0924 0.0226593L0.692441 3.18935C0.519346 3.23984 0.367278 3.34509 0.259093 3.48934C0.150909 3.63358 0.0924683 3.80901 0.0924683 3.98932V29.1892C0.0924683 29.4102 0.180328 29.6222 0.336608 29.7785C0.492887 29.9348 0.704785 30.0225 0.925798 30.0225L1.19252 29.9725L10.0924 26.5226L20.0924 30.0225L29.4924 26.8558C29.6655 26.8053 29.8175 26.7001 29.9257 26.5558C30.0339 26.4116 30.0923 26.2362 30.0923 26.0559V0.855989C30.0923 0.634976 30.0045 0.422977 29.8482 0.266697C29.6919 0.110417 29.48 0.0226593 29.259 0.0226593L28.9923 0.0727079L20.0924 3.5226L10.0924 0.0226593ZM8.42576 4.10599V23.6059L3.42579 25.5392V5.78934L8.42576 4.10599ZM11.7591 4.13926L18.4257 6.47262V25.9059L11.7591 23.5726V4.13926ZM26.759 4.52266V24.2558L21.759 25.9392V6.45594L26.759 4.52266Z" fill="black"/>
</svg>
