<?xml version="1.0" encoding="UTF-8" standalone="no"?>
<svg
   width="30"
   height="30"
   fill="none"
   version="1.1"
   viewBox="0 0 30 30"
   xml:space="preserve"
   id="svg1"
   sodipodi:docname="map-icon.svg"
   inkscape:version="1.3 (0e150ed6c4, 2023-07-21)"
   xmlns:inkscape="http://www.inkscape.org/namespaces/inkscape"
   xmlns:sodipodi="http://sodipodi.sourceforge.net/DTD/sodipodi-0.dtd"
   xmlns="http://www.w3.org/2000/svg"
   xmlns:svg="http://www.w3.org/2000/svg"><defs
     id="defs1" /><sodipodi:namedview
     id="namedview1"
     pagecolor="#ffffff"
     bordercolor="#000000"
     borderopacity="0.25"
     inkscape:showpageshadow="2"
     inkscape:pageopacity="0.0"
     inkscape:pagecheckerboard="0"
     inkscape:deskcolor="#d1d1d1"
     inkscape:zoom="39.1"
     inkscape:cx="15"
     inkscape:cy="15"
     inkscape:window-width="2560"
     inkscape:window-height="1369"
     inkscape:window-x="-8"
     inkscape:window-y="-8"
     inkscape:window-maximized="1"
     inkscape:current-layer="svg1" /><path
     d="M 9.9999709,0 0.59997,3.1667 C 0.42687,3.21719 0.27481,3.32244 0.16662,3.46669 0.05844,3.61093 0,3.78636 0,3.96667 v 25.2 c 0,0.221 0.08786,0.433 0.24414,0.5893 0.15628,0.1563 0.36818,0.244 0.58919,0.244 l 0.2667201,-0.05 8.8999008,-3.4499 10.0000001,3.4999 9.4,-3.1667 c 0.1731,-0.0505 0.3251,-0.1557 0.4333,-0.3 0.1082,-0.1442 0.141025,-0.3196 0.141025,-0.4999 v -25.2 c 0,-0.22101 -0.06222,-0.43301 -0.218525,-0.58929 C 29.599451,0.0878 29.387551,4e-5 29.166551,4e-5 l -0.2667,0.050049 -8.8999,3.4499 z M 8.8396701,2.8174 v 21.742 l -6.6638,2.6205 V 5.1879 Z m 2.3568009,0.069439 7.5708,2.6951 v 21.676 l -7.5708,-2.695 z m 16.650821,0.072858 V 24.935697 l -6.686821,2.28325 v -21.726 z"
     fill="#000000"
     id="path1"
     sodipodi:nodetypes="cccsssccccccsssccccccccccccccccccc" /></svg>
