<svg width="44" height="44" viewBox="0 0 44 44" fill="none" xmlns="http://www.w3.org/2000/svg">
<g id="box-arrow-up-right 1" clip-path="url(#clip0_145_575)">
<path id="Vector" fill-rule="evenodd" clip-rule="evenodd" d="M23.749 9.625C23.749 9.26033 23.6041 8.91059 23.3463 8.65273C23.0884 8.39487 22.7387 8.25 22.374 8.25H4.125C3.03098 8.25 1.98177 8.6846 1.20818 9.45818C0.434597 10.2318 0 11.281 0 12.375L0 39.875C0 40.969 0.434597 42.0182 1.20818 42.7918C1.98177 43.5654 3.03098 44 4.125 44H31.625C32.719 44 33.7682 43.5654 34.5418 42.7918C35.3154 42.0182 35.75 40.969 35.75 39.875V21.626C35.75 21.2613 35.6051 20.9116 35.3473 20.6537C35.0894 20.3959 34.7397 20.251 34.375 20.251C34.0103 20.251 33.6606 20.3959 33.4027 20.6537C33.1449 20.9116 33 21.2613 33 21.626V39.875C33 40.2397 32.8551 40.5894 32.5973 40.8473C32.3394 41.1051 31.9897 41.25 31.625 41.25H4.125C3.76033 41.25 3.41059 41.1051 3.15273 40.8473C2.89487 40.5894 2.75 40.2397 2.75 39.875V12.375C2.75 12.0103 2.89487 11.6606 3.15273 11.4027C3.41059 11.1449 3.76033 11 4.125 11H22.374C22.7387 11 23.0884 10.8551 23.3463 10.5973C23.6041 10.3394 23.749 9.98967 23.749 9.625Z" fill="black"/>
<path id="Vector_2" fill-rule="evenodd" clip-rule="evenodd" d="M43.9998 1.375C43.9998 1.01033 43.8549 0.660591 43.5971 0.402728C43.3392 0.144866 42.9895 0 42.6248 0L28.8748 0C28.5101 0 28.1604 0.144866 27.9025 0.402728C27.6446 0.660591 27.4998 1.01033 27.4998 1.375C27.4998 1.73967 27.6446 2.08941 27.9025 2.34727C28.1604 2.60513 28.5101 2.75 28.8748 2.75H39.3055L16.9013 25.1515C16.7734 25.2793 16.672 25.4311 16.6028 25.5981C16.5337 25.7652 16.498 25.9442 16.498 26.125C16.498 26.3058 16.5337 26.4848 16.6028 26.6519C16.672 26.8189 16.7734 26.9707 16.9013 27.0985C17.0291 27.2263 17.1809 27.3278 17.3479 27.3969C17.515 27.4661 17.694 27.5017 17.8748 27.5017C18.0556 27.5017 18.2346 27.4661 18.4016 27.3969C18.5687 27.3278 18.7204 27.2263 18.8483 27.0985L41.2498 4.69425V15.125C41.2498 15.4897 41.3946 15.8394 41.6525 16.0973C41.9104 16.3551 42.2601 16.5 42.6248 16.5C42.9895 16.5 43.3392 16.3551 43.5971 16.0973C43.8549 15.8394 43.9998 15.4897 43.9998 15.125V1.375Z" fill="black"/>
</g>
<defs>
<clipPath id="clip0_145_575">
<rect width="44" height="44" fill="white"/>
</clipPath>
</defs>
</svg>
