<svg width="30" height="30" viewBox="0 0 30 30" fill="none" xmlns="http://www.w3.org/2000/svg">
<path d="M18.3676 2.51822C17.3795 -0.838025 12.6207 -0.838025 11.6326 2.51822L11.4563 3.11635C11.3873 3.35064 11.2668 3.56651 11.1035 3.74815C10.9402 3.92978 10.7384 4.07258 10.5127 4.16607C10.2871 4.25956 10.0434 4.30138 9.79951 4.28845C9.55562 4.27552 9.31771 4.20817 9.10322 4.09135L8.55572 3.79135C5.48072 2.11885 2.11885 5.4826 3.79322 8.55572L4.09135 9.10322C4.20817 9.31771 4.27552 9.55562 4.28845 9.79951C4.30138 10.0434 4.25956 10.2871 4.16607 10.5127C4.07258 10.7384 3.92978 10.9402 3.74815 11.1035C3.56651 11.2668 3.35064 11.3873 3.11635 11.4563L2.51822 11.6326C-0.838025 12.6207 -0.838025 17.3795 2.51822 18.3676L3.11635 18.5438C3.35064 18.6129 3.56651 18.7334 3.74815 18.8967C3.92978 19.06 4.07258 19.2618 4.16607 19.4875C4.25956 19.7131 4.30138 19.9568 4.28845 20.2007C4.27552 20.4446 4.20817 20.6825 4.09135 20.897L3.79135 21.4445C2.11885 24.5195 5.48072 27.8832 8.55572 26.207L9.10322 25.9088C9.31771 25.792 9.55562 25.7247 9.79951 25.7118C10.0434 25.6988 10.2871 25.7406 10.5127 25.8341C10.7384 25.9276 10.9402 26.0704 11.1035 26.2521C11.2668 26.4337 11.3873 26.6496 11.4563 26.8839L11.6326 27.482C12.6207 30.8382 17.3795 30.8382 18.3676 27.482L18.5438 26.8839C18.6129 26.6496 18.7334 26.4337 18.8967 26.2521C19.06 26.0704 19.2618 25.9276 19.4875 25.8341C19.7131 25.7406 19.9568 25.6988 20.2007 25.7118C20.4446 25.7247 20.6825 25.792 20.897 25.9088L21.4445 26.2088C24.5195 27.8832 27.8832 24.5176 26.207 21.4445L25.9088 20.897C25.792 20.6825 25.7247 20.4446 25.7118 20.2007C25.6988 19.9568 25.7406 19.7131 25.8341 19.4875C25.9276 19.2618 26.0704 19.06 26.2521 18.8967C26.4337 18.7334 26.6496 18.6129 26.8839 18.5438L27.482 18.3676C30.8382 17.3795 30.8382 12.6207 27.482 11.6326L26.8839 11.4563C26.6496 11.3873 26.4337 11.2668 26.2521 11.1035C26.0704 10.9402 25.9276 10.7384 25.8341 10.5127C25.7406 10.2871 25.6988 10.0434 25.7118 9.79951C25.7247 9.55562 25.792 9.31771 25.9088 9.10322L26.2088 8.55572C27.8832 5.48072 24.5176 2.11885 21.4445 3.79322L20.897 4.09135C20.6825 4.20817 20.4446 4.27552 20.2007 4.28845C19.9568 4.30138 19.7131 4.25956 19.4875 4.16607C19.2618 4.07258 19.06 3.92978 18.8967 3.74815C18.7334 3.56651 18.6129 3.35064 18.5438 3.11635L18.3676 2.51822ZM13.4307 3.04885C13.892 1.48322 16.1082 1.48322 16.5695 3.04885L16.7457 3.64697C16.8939 4.14963 17.1527 4.61276 17.5031 5.00241C17.8535 5.39206 18.2867 5.69834 18.7709 5.89881C19.255 6.09928 19.778 6.18885 20.3013 6.16096C20.8246 6.13306 21.335 5.98841 21.7951 5.7376L22.3407 5.4376C23.7732 4.65947 25.3407 6.2251 24.5607 7.65947L24.2626 8.20697C24.0122 8.66715 23.8679 9.17753 23.8403 9.7007C23.8127 10.2239 23.9025 10.7466 24.1031 11.2306C24.3038 11.7145 24.6101 12.1475 24.9998 12.4977C25.3895 12.8479 25.8525 13.1065 26.3551 13.2545L26.9513 13.4307C28.517 13.892 28.517 16.1082 26.9513 16.5695L26.3532 16.7457C25.8506 16.8939 25.3874 17.1527 24.9978 17.5031C24.6081 17.8535 24.3019 18.2867 24.1014 18.7709C23.9009 19.255 23.8113 19.778 23.8392 20.3013C23.8671 20.8246 24.0118 21.335 24.2626 21.7951L24.5626 22.3407C25.3407 23.7732 23.7751 25.3407 22.3407 24.5607L21.7951 24.2626C21.3349 24.0118 20.8243 23.8672 20.3009 23.8395C19.7775 23.8117 19.2545 23.9014 18.7703 24.1021C18.2861 24.3027 17.853 24.6092 17.5026 24.9991C17.1523 25.3889 16.8937 25.8523 16.7457 26.3551L16.5695 26.9513C16.1082 28.517 13.892 28.517 13.4307 26.9513L13.2545 26.3532C13.1062 25.8508 12.8475 25.3879 12.4972 24.9985C12.1469 24.609 11.714 24.3029 11.23 24.1024C10.7461 23.902 10.2234 23.8124 9.70035 23.8401C9.17728 23.8678 8.66703 24.0121 8.20697 24.2626L7.65947 24.5626C6.22697 25.3407 4.65947 23.7751 5.43947 22.3407L5.7376 21.7951C5.98876 21.3349 6.1337 20.8243 6.16177 20.3008C6.18985 19.7773 6.10036 19.2541 5.89987 18.7697C5.69938 18.2853 5.39296 17.8519 5.00312 17.5013C4.61328 17.1508 4.1499 16.8919 3.64697 16.7439L3.04885 16.5676C1.48322 16.1063 1.48322 13.8901 3.04885 13.4288L3.64697 13.2526C4.14911 13.1043 4.61174 12.8456 5.00099 12.4955C5.39025 12.1453 5.69628 11.7125 5.8967 11.2288C6.09712 10.7451 6.18685 10.2227 6.15932 9.69989C6.13179 9.17703 5.9877 8.66695 5.7376 8.20697L5.4376 7.65947C4.65947 6.22697 6.2251 4.65947 7.65947 5.43947L8.20697 5.7376C8.66703 5.98805 9.17728 6.13242 9.70035 6.16014C10.2234 6.18785 10.7461 6.0982 11.23 5.89776C11.714 5.69731 12.1469 5.39115 12.4972 5.0017C12.8475 4.61225 13.1062 4.14937 13.2545 3.64697L13.4307 3.04885Z" fill="#444444"/>
</svg>
