<?xml version="1.0" encoding="UTF-8" standalone="no"?>
<svg
   width="30"
   height="30"
   viewBox="0 0 30 30"
   fill="none"
   version="1.1"
   id="svg832"
   sodipodi:docname="settings-icon.svg"
   inkscape:version="1.1.1 (c3084ef, 2021-09-22)"
   xmlns:inkscape="http://www.inkscape.org/namespaces/inkscape"
   xmlns:sodipodi="http://sodipodi.sourceforge.net/DTD/sodipodi-0.dtd"
   xmlns="http://www.w3.org/2000/svg"
   xmlns:svg="http://www.w3.org/2000/svg">
  <sodipodi:namedview
     id="namedview834"
     pagecolor="#ffffff"
     bordercolor="#666666"
     borderopacity="1.0"
     inkscape:pageshadow="2"
     inkscape:pageopacity="0.0"
     inkscape:pagecheckerboard="0"
     showgrid="false"
     inkscape:zoom="18.833333"
     inkscape:cx="15"
     inkscape:cy="15"
     inkscape:window-width="1312"
     inkscape:window-height="787"
     inkscape:window-x="0"
     inkscape:window-y="25"
     inkscape:window-maximized="0"
     inkscape:current-layer="svg832" />
  <g
     id="g1046">
    <path
       id="Vector"
       d="m 15,8.91376 c -0.7992,0 -1.5907,0.15742 -2.3291,0.46329 -0.7384,0.30586 -1.4094,0.75415 -1.9745,1.31935 -0.5652,0.5651 -1.01349,1.2361 -1.31935,1.9745 C 9.07118,13.4093 8.91376,14.2007 8.91376,15 c 0,0.7993 0.15742,1.5907 0.46329,2.3291 0.30586,0.7384 0.75415,1.4094 1.31935,1.9745 0.5651,0.5652 1.2361,1.0135 1.9745,1.3194 0.7384,0.3058 1.5299,0.4633 2.3291,0.4633 1.6142,0 3.1622,-0.6413 4.3036,-1.7827 1.1414,-1.1414 1.7827,-2.6894 1.7827,-4.3036 0,-1.6142 -0.6413,-3.1622 -1.7827,-4.3036 C 18.1622,9.55499 16.6142,8.91376 15,8.91376 Z M 10.7888,15 c 0,-1.1169 0.4436,-2.188 1.2334,-2.9778 0.7898,-0.7898 1.8609,-1.2334 2.9778,-1.2334 1.1169,0 2.188,0.4436 2.9778,1.2334 0.7898,0.7898 1.2335,1.8609 1.2335,2.9778 0,1.1169 -0.4437,2.188 -1.2335,2.9778 -0.7898,0.7898 -1.8609,1.2335 -2.9778,1.2335 -1.1169,0 -2.188,-0.4437 -2.9778,-1.2335 C 11.2324,17.188 10.7888,16.1169 10.7888,15 Z"
       fill="#444444"
       style="fill:#000000;fill-opacity:1" />
    <path
       id="Vector_2"
       d="m 18.3676,2.51822 c -0.9881,-3.356245 -5.7469,-3.356245 -6.735,0 L 11.4563,3.11635 C 11.3873,3.35064 11.2668,3.56651 11.1035,3.74815 10.9402,3.92978 10.7384,4.07258 10.5127,4.16607 10.2871,4.25956 10.0434,4.30138 9.79951,4.28845 9.55562,4.27552 9.31771,4.20817 9.10322,4.09135 l -0.5475,-0.3 C 5.48072,2.11885 2.11885,5.4826 3.79322,8.55572 l 0.29813,0.5475 c 0.11682,0.21449 0.18417,0.4524 0.1971,0.69629 0.01293,0.24389 -0.02889,0.48759 -0.12238,0.71319 -0.09349,0.2257 -0.23629,0.4275 -0.41792,0.5908 -0.18164,0.1633 -0.39751,0.2838 -0.6318,0.3528 l -0.59813,0.1763 c -3.356245,0.9881 -3.356245,5.7469 0,6.735 l 0.59813,0.1762 c 0.23429,0.0691 0.45016,0.1896 0.6318,0.3529 0.18163,0.1633 0.32443,0.3651 0.41792,0.5908 0.09349,0.2256 0.13531,0.4693 0.12238,0.7132 -0.01293,0.2439 -0.08028,0.4818 -0.1971,0.6963 l -0.3,0.5475 c -1.6725,3.075 1.68937,6.4387 4.76437,4.7625 l 0.5475,-0.2982 c 0.21449,-0.1168 0.4524,-0.1841 0.69629,-0.197 0.24389,-0.013 0.48759,0.0288 0.71319,0.1223 0.2257,0.0935 0.4275,0.2363 0.5908,0.418 0.1633,0.1816 0.2838,0.3975 0.3528,0.6318 l 0.1763,0.5981 c 0.9881,3.3562 5.7469,3.3562 6.735,0 l 0.1762,-0.5981 c 0.0691,-0.2343 0.1896,-0.4502 0.3529,-0.6318 0.1633,-0.1817 0.3651,-0.3245 0.5908,-0.418 0.2256,-0.0935 0.4693,-0.1353 0.7132,-0.1223 0.2439,0.0129 0.4818,0.0802 0.6963,0.197 l 0.5475,0.3 c 3.075,1.6744 6.4387,-1.6912 4.7625,-4.7643 L 25.9088,20.897 c -0.1168,-0.2145 -0.1841,-0.4524 -0.197,-0.6963 -0.013,-0.2439 0.0288,-0.4876 0.1223,-0.7132 0.0935,-0.2257 0.2363,-0.4275 0.418,-0.5908 0.1816,-0.1633 0.3975,-0.2838 0.6318,-0.3529 l 0.5981,-0.1762 c 3.3562,-0.9881 3.3562,-5.7469 0,-6.735 l -0.5981,-0.1763 c -0.2343,-0.069 -0.4502,-0.1895 -0.6318,-0.3528 -0.1817,-0.1633 -0.3245,-0.3651 -0.418,-0.5908 -0.0935,-0.2256 -0.1353,-0.4693 -0.1223,-0.71319 0.0129,-0.24389 0.0802,-0.4818 0.197,-0.69629 l 0.3,-0.5475 c 1.6744,-3.075 -1.6912,-6.43687 -4.7643,-4.7625 L 20.897,4.09135 C 20.6825,4.20817 20.4446,4.27552 20.2007,4.28845 19.9568,4.30138 19.7131,4.25956 19.4875,4.16607 19.2618,4.07258 19.06,3.92978 18.8967,3.74815 18.7334,3.56651 18.6129,3.35064 18.5438,3.11635 Z m -4.9369,0.53063 c 0.4613,-1.56563 2.6775,-1.56563 3.1388,0 l 0.1762,0.59812 c 0.1482,0.50266 0.407,0.96579 0.7574,1.35544 0.3504,0.38965 0.7836,0.69593 1.2678,0.8964 0.4841,0.20047 1.0071,0.29004 1.5304,0.26215 0.5233,-0.0279 1.0337,-0.17255 1.4938,-0.42336 l 0.5456,-0.3 c 1.4325,-0.77813 3,0.7875 2.22,2.22187 l -0.2981,0.5475 c -0.2504,0.46018 -0.3947,0.97056 -0.4223,1.49373 -0.0276,0.5232 0.0622,1.0459 0.2628,1.5299 0.2007,0.4839 0.507,0.9169 0.8967,1.2671 0.3897,0.3502 0.8527,0.6088 1.3553,0.7568 l 0.5962,0.1762 c 1.5657,0.4613 1.5657,2.6775 0,3.1388 l -0.5981,0.1762 c -0.5026,0.1482 -0.9658,0.407 -1.3554,0.7574 -0.3897,0.3504 -0.6959,0.7836 -0.8964,1.2678 -0.2005,0.4841 -0.2901,1.0071 -0.2622,1.5304 0.0279,0.5233 0.1726,1.0337 0.4234,1.4938 l 0.3,0.5456 c 0.7781,1.4325 -0.7875,3 -2.2219,2.22 l -0.5456,-0.2981 c -0.4602,-0.2508 -0.9708,-0.3954 -1.4942,-0.4231 -0.5234,-0.0278 -1.0464,0.0619 -1.5306,0.2626 -0.4842,0.2006 -0.9173,0.5071 -1.2677,0.897 -0.3503,0.3898 -0.6089,0.8532 -0.7569,1.356 l -0.1762,0.5962 c -0.4613,1.5657 -2.6775,1.5657 -3.1388,0 L 13.2545,26.3532 C 13.1062,25.8508 12.8475,25.3879 12.4972,24.9985 12.1469,24.609 11.714,24.3029 11.23,24.1024 10.7461,23.902 10.2234,23.8124 9.70035,23.8401 9.17728,23.8678 8.66703,24.0121 8.20697,24.2626 l -0.5475,0.3 c -1.4325,0.7781 -3,-0.7875 -2.22,-2.2219 L 5.7376,21.7951 C 5.98876,21.3349 6.1337,20.8243 6.16177,20.3008 6.18985,19.7773 6.10036,19.2541 5.89987,18.7697 5.69938,18.2853 5.39296,17.8519 5.00312,17.5013 4.61328,17.1508 4.1499,16.8919 3.64697,16.7439 L 3.04885,16.5676 c -1.56563,-0.4613 -1.56563,-2.6775 0,-3.1388 L 3.64697,13.2526 C 4.14911,13.1043 4.61174,12.8456 5.00099,12.4955 5.39025,12.1453 5.69628,11.7125 5.8967,11.2288 6.09712,10.7451 6.18685,10.2227 6.15932,9.69989 6.13179,9.17703 5.9877,8.66695 5.7376,8.20697 l -0.3,-0.5475 c -0.77813,-1.4325 0.7875,-3 2.22187,-2.22 L 8.20697,5.7376 C 8.66703,5.98805 9.17728,6.13242 9.70035,6.16014 10.2234,6.18785 10.7461,6.0982 11.23,5.89776 11.714,5.69731 12.1469,5.39115 12.4972,5.0017 12.8475,4.61225 13.1062,4.14937 13.2545,3.64697 Z"
       fill="#444444"
       style="fill:#000000;fill-opacity:1" />
  </g>
  <defs
     id="defs830">
    <clipPath
       id="clip0_44_43">
      <rect
         width="30"
         height="30"
         fill="white"
         id="rect827" />
    </clipPath>
  </defs>
</svg>
