<?xml version="1.0" encoding="UTF-8" standalone="no"?>
<svg
   id="svg21"
   version="1.1"
   viewBox="0 0 101.66582 19.886667"
   height="19.886667"
   width="101.66582"
   sodipodi:docname="social-icons-map.svg"
   inkscape:version="1.1.1 (c3084ef, 2021-09-22)"
   xmlns:inkscape="http://www.inkscape.org/namespaces/inkscape"
   xmlns:sodipodi="http://sodipodi.sourceforge.net/DTD/sodipodi-0.dtd"
   xmlns="http://www.w3.org/2000/svg"
   xmlns:svg="http://www.w3.org/2000/svg"
   xmlns:rdf="http://www.w3.org/1999/02/22-rdf-syntax-ns#"
   xmlns:cc="http://creativecommons.org/ns#"
   xmlns:dc="http://purl.org/dc/elements/1.1/">
  <sodipodi:namedview
     id="namedview840"
     pagecolor="#ffffff"
     bordercolor="#666666"
     borderopacity="1.0"
     inkscape:pageshadow="2"
     inkscape:pageopacity="0.0"
     inkscape:pagecheckerboard="0"
     showgrid="false"
     inkscape:zoom="11.242717"
     inkscape:cx="21.124787"
     inkscape:cy="10.984889"
     inkscape:window-width="1312"
     inkscape:window-height="791"
     inkscape:window-x="0"
     inkscape:window-y="25"
     inkscape:window-maximized="0"
     inkscape:current-layer="svg21" />
  <metadata
     id="metadata27">
    <rdf:RDF>
      <cc:Work
         rdf:about="">
        <dc:format>image/svg+xml</dc:format>
        <dc:type
           rdf:resource="http://purl.org/dc/dcmitype/StillImage" />
        <dc:title>D444293F-0A9E-47F7-8FAD-A9155226D304</dc:title>
      </cc:Work>
    </rdf:RDF>
  </metadata>
  <defs
     id="defs25" />
  <title
     id="title10">D444293F-0A9E-47F7-8FAD-A9155226D304</title>
  <path
     style="fill:#4069f2;fill-opacity:1;fill-rule:evenodd;stroke:none;stroke-width:1"
     d="M 40.490075,19.467144 H 36.267163 V 9.9421304 H 34.156997 V 6.6601313 h 2.110166 V 4.6897294 c 0,-2.6772942 1.190879,-4.27020593 4.576435,-4.27020593 h 2.817855 V 3.7027252 h -1.76116 c -1.317966,0 -1.405057,0.4586384 -1.405057,1.314603 l -0.0058,1.6428031 h 3.19138 l -0.37352,3.2819991 H 40.48943 v 9.5250136 z"
     id="Shape-5" />
  <g
     transform="translate(55.805478)"
     style="fill:#4069f2;fill-rule:evenodd;stroke:none;stroke-width:1;fill-opacity:1"
     id="Group-1">
    <path
       style="fill:#4069f2;fill-opacity:1"
       id="Fill-56"
       d="m 10.121905,17.830476 c -1.6676193,0 -3.2171431,-0.493333 -4.514286,-1.347619 L 2.4542857,17.487619 3.4780952,14.462857 C 2.4952381,13.119048 1.9152381,11.469524 1.9152381,9.6876191 c 0,-0.264762 0.013333,-0.5304762 0.040952,-0.7904762 0.4019047,-4.1219048 3.9114285,-7.352381 8.1657149,-7.352381 4.309524,0 7.850476,3.312381 8.179047,7.5076191 0.01905,0.2104761 0.02762,0.42 0.02762,0.6352381 0,4.4914289 -3.682857,8.1428569 -8.206667,8.1428569 z m 9.75619,-8.3895236 C 19.745714,4.2038095 15.431429,0 10.121905,0 4.8761905,0 0.59904762,4.1085714 0.37047619,9.2628571 c -0.004762,0.1419048 -0.008571,0.2828572 -0.008571,0.424762 0,1.8323809 0.51142857,3.5419049 1.39809521,5.0038099 L 0,19.886667 5.4057143,18.168571 c 1.3990476,0.767619 3.0066666,1.206667 4.7161907,1.206667 5.392381,0 9.760952,-4.33619 9.760952,-9.6876189 0,-0.081905 0,-0.164762 -0.0048,-0.2466667 z" />
    <path
       style="fill:#4069f2;fill-opacity:1"
       id="Fill-57"
       d="M 14.595238,11.64381 C 14.353333,11.524762 13.179048,10.948571 12.96,10.871429 c -0.22,-0.08286 -0.38,-0.119048 -0.539048,0.118095 -0.16,0.238095 -0.621904,0.772381 -0.759047,0.927619 -0.141905,0.16 -0.279048,0.179048 -0.520953,0.06 C 10.90381,11.858095 10.131429,11.611429 9.2171429,10.798095 8.5095238,10.172381 8.0247619,9.3952381 7.887619,9.1571429 7.7504762,8.92 7.8733333,8.7914286 7.9923809,8.6733333 8.1019048,8.5638095 8.2304762,8.3942857 8.3533333,8.2571429 8.3857143,8.2161905 8.4123809,8.18 8.44,8.1428571 8.4952381,8.0561905 8.5361905,7.9742857 8.5914286,7.86 8.6733333,7.7 8.632381,7.5628571 8.5733333,7.4438095 8.5133333,7.3247619 8.0333333,6.1552381 7.8323809,5.68 7.6361905,5.2047619 7.4352381,5.2866667 7.2933333,5.2866667 c -0.1371428,0 -0.2971428,-0.021905 -0.4571428,-0.021905 -0.16,0 -0.42,0.059048 -0.6390476,0.2961905 -0.22,0.2380952 -0.8361905,0.8133333 -0.8361905,1.9838095 0,0.2733333 0.049524,0.5476191 0.1228571,0.8085714 0.2419048,0.8361905 0.7638095,1.5257143 0.8542857,1.6447619 0.1190477,0.156191 1.6542857,2.632381 4.0857148,3.587619 2.435238,0.945715 2.435238,0.630477 2.874285,0.589524 0.438095,-0.03714 1.416191,-0.571428 1.612381,-1.128571 0.201905,-0.553334 0.201905,-1.028572 0.141905,-1.129524 -0.05905,-0.09524 -0.219048,-0.155238 -0.457143,-0.273333" />
  </g>
  <path
     style="fill:#4069f2;fill-rule:evenodd;stroke:none;stroke-width:1;fill-opacity:1"
     d="m 83.942606,6.6825272 h 3.543787 V 19.033079 h -3.543787 z m 1.681561,-1.5448375 h -0.02566 c -1.282818,0 -2.114513,-0.9441321 -2.114513,-2.1397223 0,-1.2200375 0.856282,-2.14554297 2.164757,-2.14554297 1.307406,0 2.111306,0.92317717 2.136962,2.14205057 0,1.1955901 -0.829556,2.1432147 -2.16155,2.1432147 z M 101.66582,19.034243 h -4.018434 v -6.392391 c 0,-1.672896 -0.628581,-2.8137704 -2.010818,-2.8137704 -1.057257,0 -1.645215,0.7695094 -1.918883,1.5134064 -0.102626,0.265428 -0.08659,0.636794 -0.08659,1.009325 v 6.68343 H 89.65008 c 0,0 0.05131,-11.3226004 0,-12.3517158 h 3.981015 v 1.9383224 c 0.235183,-0.847506 1.507312,-2.0570665 3.537372,-2.0570665 2.518601,0 4.497353,1.7776695 4.497353,5.6019279 z"
     id="Shape-9" />
  <path
     d="m 11.144935,8.4972189 6.2521,-8.00270384 H 15.915684 L 10.484532,7.4417007 6.1498448,0.49451506 H 1.149146 L 7.7055087,11.000823 1.149146,19.392153 h 1.481351 l 5.7319099,-7.338177 4.5786571,7.338177 h 5.000699 z M 9.115351,11.093053 8.45004,10.046206 3.1647087,1.724245 h 2.275658 l 4.2666834,6.718582 0.6625069,1.046847 5.545426,8.732659 h -2.275658 z m 0,0"
     id="path922"
     style="stroke-width:0.743399;fill:#4069f2;fill-opacity:1" />
</svg>
