<svg width="57" height="57" viewBox="0 0 57 57" fill="none" xmlns="http://www.w3.org/2000/svg">
<path d="M3.87363 10.1523V37.5814C5.2083 37.9301 6.19704 39.1497 6.19704 40.6019C6.19704 42.324 4.80759 43.7254 3.09917 43.7254C1.39059 43.7254 0 42.324 0 40.6019C0 39.1497 0.989899 37.9301 2.32472 37.5814V8.59086H37.1778V10.1521L3.87363 10.1523ZM52.6714 21.8644C52.6714 20.1423 51.2808 18.7417 49.5723 18.7417C47.8637 18.7417 46.4743 20.1423 46.4743 21.8644C46.4743 23.3187 47.4665 24.5407 48.8035 24.8871V55.4386H15.4933V57H50.3527V24.8834C51.6838 24.5335 52.6714 23.3152 52.6714 21.8644ZM43.381 46.8434C41.9379 46.8434 40.7256 47.8435 40.3821 49.1922H10.0708V15.6179H8.52187V50.7537H40.3855C40.7326 52.0955 41.9415 53.0909 43.381 53.0909C45.0896 53.0909 46.479 51.6894 46.479 49.9659C46.479 48.2439 45.0895 46.8434 43.381 46.8434ZM24.6871 2.34186C24.3412 0.99779 23.1311 0 21.6905 0C19.9819 0 18.5925 1.40149 18.5925 3.12359C18.5925 4.84573 19.9819 6.24621 21.6905 6.24621C23.1312 6.24621 24.3412 5.24845 24.6871 3.90423H55.0004V37.4718H56.5495V2.34155L24.6871 2.34186Z" fill="#0071D7"/>
<path d="M39.5072 33.2508C38.8934 34.7137 38.0145 36.0274 36.895 37.1558C35.7757 38.2841 34.4721 39.1698 33.0209 39.7887C31.5187 40.429 29.9225 40.7538 28.2769 40.7538C26.6314 40.7538 25.0354 40.4291 23.5329 39.7887C22.0816 39.1698 20.7781 38.2841 19.6587 37.1558C18.5392 36.0274 17.6605 34.7137 17.0465 33.2508C16.4112 31.7367 16.089 30.1279 16.089 28.4691C16.089 26.8103 16.4112 25.2017 17.0465 23.6875C17.6605 22.2246 18.5392 20.9108 19.6587 19.7826C20.7781 18.6542 22.0816 17.7683 23.5329 17.1497C25.0352 16.5092 26.6312 16.1844 28.2769 16.1844C29.9226 16.1844 31.5187 16.5091 33.0209 17.1497C34.4721 17.7683 35.7757 18.6542 36.895 19.7826C38.0145 20.9108 38.8934 22.2246 39.5072 23.6875C40.1425 25.2016 40.4649 26.8104 40.4649 28.4691C40.4649 30.1278 40.1425 31.7365 39.5072 33.2508ZM40.2675 23.3635C39.612 21.8015 38.6738 20.3988 37.4788 19.1946C36.2837 17.99 34.8921 17.0444 33.3423 16.3837C31.7377 15.6996 30.0336 15.3527 28.2769 15.3527C26.5203 15.3527 24.816 15.6998 23.2115 16.3837C21.662 17.0444 20.2703 17.99 19.0754 19.1946C17.8803 20.3989 16.9421 21.8016 16.2868 23.3635C15.6081 24.981 15.2639 26.6987 15.2639 28.4691C15.2639 30.2396 15.6081 31.9575 16.2868 33.5747C16.9421 35.1369 17.8804 36.5396 19.0754 37.7441C20.2705 38.9488 21.6621 39.8944 23.2115 40.555C24.8162 41.2391 26.5205 41.5858 28.2769 41.5858C30.0336 41.5858 31.7377 41.2391 33.3423 40.555C34.892 39.8944 36.2836 38.9488 37.4788 37.7441C38.6738 36.5397 39.612 35.137 40.2675 33.5747C40.9461 31.9576 41.2903 30.2398 41.2903 28.4691C41.2903 26.6985 40.9461 24.9808 40.2675 23.3635Z" fill="#0071D7"/>
<path d="M31.9199 33.5301H24.6293C24.542 33.5301 24.4712 33.6015 24.4712 33.6893V34.2001C24.4712 34.2878 24.542 34.3597 24.6293 34.3597H31.9199C32.0074 34.3597 32.0781 34.2882 32.0781 34.2001V33.6893C32.0781 33.6015 32.0074 33.5301 31.9199 33.5301Z" fill="#0071D7"/>
<path d="M30.5622 35.2854H25.9868C25.9504 35.2854 25.9207 35.3133 25.9207 35.352V36.0481C25.9207 36.084 25.9503 36.1146 25.9868 36.1146H30.5622C30.5986 36.1146 30.6284 36.0867 30.6284 36.0481V35.352C30.6284 35.3161 30.5987 35.2854 30.5622 35.2854Z" fill="#0071D7"/>
<path d="M28.2746 28.9822C27.9912 28.9822 27.7604 28.7496 27.7604 28.4637C27.7604 28.1781 27.9911 27.9454 28.2746 27.9454C28.5583 27.9454 28.7889 28.178 28.7889 28.4637C28.7889 28.7497 28.5583 28.9822 28.2746 28.9822ZM28.2746 27.3463C27.6633 27.3463 27.166 27.8476 27.166 28.4637C27.166 29.0799 27.6633 29.5813 28.2746 29.5813C28.886 29.5813 29.3833 29.0799 29.3833 28.4637C29.3833 27.8476 28.886 27.3463 28.2746 27.3463Z" fill="#0071D7"/>
<path d="M29.9407 27.187C29.8273 27.0402 29.6954 26.9089 29.5482 26.7968L32.5089 24.1984L29.9407 27.187ZM28.2752 30.0245C27.438 30.0245 26.757 29.3383 26.757 28.4944C26.757 27.6505 27.4379 26.9641 28.2752 26.9641C29.1122 26.9641 29.7933 27.6505 29.7933 28.4944C29.7933 29.3383 29.1122 30.0245 28.2752 30.0245ZM36.4159 20.249C36.2809 20.1133 36.0647 20.1058 35.921 20.233L28.8437 26.4449C28.6627 26.3934 28.4722 26.3659 28.2751 26.3659C27.1103 26.3659 26.1626 27.3211 26.1626 28.4953C26.1626 29.6692 27.1103 30.6246 28.2751 30.6246C29.44 30.6246 30.3878 29.6692 30.3878 28.4953C30.3878 28.2846 30.3565 28.0809 30.2999 27.8885L36.4339 20.7487C36.559 20.6035 36.5508 20.3848 36.4159 20.249Z" fill="#0071D7"/>
<path d="M34.6389 20.6044L35.2696 20.0508C33.3097 18.3977 30.8609 17.497 28.2747 17.497C25.3573 17.497 22.6144 18.642 20.5519 20.7213C18.4889 22.8007 17.3528 25.5652 17.3528 28.5058C17.3528 29.8034 17.5749 31.0737 18.0125 32.2819C18.4355 33.4492 19.0488 34.5299 19.8354 35.494L20.473 34.9654C19.7457 34.0741 19.1789 33.0753 18.7881 31.9965C18.3835 30.8801 18.1784 29.7057 18.1784 28.5058C18.1784 25.7875 19.2287 23.2318 21.1356 21.3097C23.0426 19.3877 25.578 18.3291 28.2749 18.3291C30.6211 18.3291 32.8444 19.1305 34.6389 20.6044Z" fill="#0071D7"/>
<path d="M36.1193 22.0805C37.5784 23.888 38.3717 26.127 38.3717 28.4891C38.3717 29.6891 38.1667 30.8634 37.7621 31.9798C37.3713 33.0586 36.8045 34.0574 36.0771 34.9487L36.7148 35.4774C37.5013 34.5133 38.1146 33.4325 38.5375 32.2653C38.9753 31.057 39.1974 29.7867 39.1974 28.4891C39.1974 25.884 38.3049 23.4174 36.6671 21.4427L36.1193 22.0805Z" fill="#0071D7"/>
</svg>
